<?xml version="1.0" encoding="UTF-8"?>
<svg version="1.1" xmlns="http://www.w3.org/2000/svg" width="2000" height="2000">
<path d="M0 0 C0.03422089 56.79256918 0.06606416 113.58513938 0.08468628 170.37771606 C0.08510045 171.63760726 0.08510045 171.63760726 0.08552299 172.92295079 C0.09150816 191.17480121 0.09704861 209.42665174 0.10213066 227.67850243 C0.10462543 236.62860451 0.10721853 245.57870656 0.10986328 254.52880859 C0.1101248 255.41947332 0.11038632 256.31013805 0.11065576 257.22779262 C0.11918551 286.12089566 0.13421337 315.0139909 0.15259444 343.90708921 C0.17144188 373.5870209 0.18376676 403.26694828 0.18782998 432.94688585 C0.18840633 437.13451373 0.1890576 441.32214158 0.18975449 445.50976944 C0.18995676 446.7461037 0.18995676 446.7461037 0.19016311 448.00741441 C0.19253081 461.29992012 0.20181839 474.59241251 0.21366407 487.88491278 C0.22541299 501.23334221 0.22994239 514.58175838 0.22700275 527.93019281 C0.22547624 535.87045077 0.22958461 543.81066036 0.24159509 551.75090962 C0.24993361 557.66521426 0.24794684 563.57948499 0.24179779 569.49379338 C0.24094654 571.8975829 0.24353686 574.30137639 0.24976636 576.70515798 C0.25769734 579.95217184 0.25352501 583.19894201 0.24609566 586.44595146 C0.2539767 587.87235525 0.2539767 587.87235525 0.26201695 589.32757527 C0.25752237 590.1863865 0.25302778 591.04519774 0.24839699 591.93003356 C0.24870895 592.67343722 0.24902092 593.41684087 0.24934233 594.18277191 C0 596 0 596 -2 598 C-4.33154297 598.15112305 -4.33154297 598.15112305 -7.2421875 598.01171875 C-8.30953125 597.96466797 -9.376875 597.91761719 -10.4765625 597.86914062 C-12.15878906 597.77922852 -12.15878906 597.77922852 -13.875 597.6875 C-15.49921875 597.61499023 -15.49921875 597.61499023 -17.15625 597.54101562 C-27.12846444 597.07096494 -37.03100866 596.51317672 -46.83984375 594.59375 C-49.26820117 594.13749496 -51.68851384 593.72473252 -54.12890625 593.34375 C-67.38549433 591.26569804 -80.3424789 588.53610693 -93 584 C-94.20527344 583.59136719 -95.41054688 583.18273437 -96.65234375 582.76171875 C-113.3518006 577.0646759 -129.33463183 570.10556469 -145 562 C-145.66 561.67 -146.32 561.34 -147 561 C-147 560.34 -147 559.68 -147 559 C-147.78375 558.855625 -148.5675 558.71125 -149.375 558.5625 C-152 558 -152 558 -154 557 C-154 556.34 -154 555.68 -154 555 C-154.87269531 554.7421875 -155.74539063 554.484375 -156.64453125 554.21875 C-160.03662982 552.98669557 -162.68004428 551.47980349 -165.6875 549.5 C-166.61949219 548.8915625 -167.55148437 548.283125 -168.51171875 547.65625 C-170.34162872 546.43822515 -172.17097346 545.21935103 -174 544 C-174 543.34 -174 542.68 -174 542 C-175.98 541.34 -177.96 540.68 -180 540 C-180 539.34 -180 538.68 -180 538 C-180.804375 537.731875 -181.60875 537.46375 -182.4375 537.1875 C-183.7059375 536.5996875 -183.7059375 536.5996875 -185 536 C-185.495 534.515 -185.495 534.515 -186 533 C-186.72574219 532.71511719 -187.45148438 532.43023438 -188.19921875 532.13671875 C-191.74267408 530.69857998 -194.10156225 528.42243345 -196.8125 525.8125 C-197.8807796 524.80651503 -198.94978958 523.8013051 -200.01953125 522.796875 C-200.53338379 522.31154297 -201.04723633 521.82621094 -201.57666016 521.32617188 C-203.33953216 519.68364688 -205.16153209 518.11960909 -207 516.5625 C-228.80509126 497.5680442 -228.80509126 497.5680442 -234 486 C-234.66 486 -235.32 486 -236 486 C-236.268125 485.401875 -236.53625 484.80375 -236.8125 484.1875 C-237.85364619 482.01644709 -237.85364619 482.01644709 -239.3359375 480.68359375 C-243.06507501 476.91068702 -245.94208333 472.31909134 -249 468 C-249.61230469 467.13632812 -250.22460938 466.27265625 -250.85546875 465.3828125 C-251.66951172 464.20332031 -251.66951172 464.20332031 -252.5 463 C-252.9846875 462.29875 -253.469375 461.5975 -253.96875 460.875 C-255 459 -255 459 -255 456 C-255.66 456 -256.32 456 -257 456 C-258.84362943 452.73486809 -260.67309479 449.46201438 -262.5 446.1875 C-263.28697266 444.7943457 -263.28697266 444.7943457 -264.08984375 443.37304688 C-264.58613281 442.48037109 -265.08242188 441.58769531 -265.59375 440.66796875 C-266.05458984 439.84578857 -266.51542969 439.0236084 -266.99023438 438.17651367 C-268 436 -268 436 -268 433 C-268.66 433 -269.32 433 -270 433 C-277 417.64974619 -277 417.64974619 -277 413 C-277.66 413 -278.32 413 -279 413 C-280.31626692 409.38026598 -281 406.90432869 -281 403 C-281.66 403 -282.32 403 -283 403 C-283.18175781 402.29875 -283.36351562 401.5975 -283.55078125 400.875 C-284.86276915 395.92308668 -286.31320503 391.18832819 -288.1796875 386.4140625 C-291.12723164 377.73986116 -293.07248811 368.56402891 -294.5078125 359.52734375 C-294.98288268 356.86599019 -294.98288268 356.86599019 -295.95703125 353.80859375 C-304.46161904 322.75251473 -303.24709368 285.40539896 -298 254 C-297.68676239 251.83343985 -297.37426582 249.66677243 -297.0625 247.5 C-295.43704052 237.0647983 -292.75451822 226.93375539 -290 216.75 C-289.75088867 215.82711182 -289.50177734 214.90422363 -289.24511719 213.95336914 C-285.29381581 199.53474415 -279.99353292 185.79401272 -273.55078125 172.3125 C-272.26595614 169.56808767 -271.08693483 166.82710143 -270 164 C-269.34 164 -268.68 164 -268 164 C-267.88785156 163.278125 -267.77570312 162.55625 -267.66015625 161.8125 C-263.35595448 143.47507233 -246.49511708 125.47682631 -235.25195312 110.66894531 C-234.22999603 109.30660158 -233.24255493 107.91842304 -232.265625 106.5234375 C-231.84796875 106.02070312 -231.4303125 105.51796875 -231 105 C-230.34 105 -229.68 105 -229 105 C-228.79375 104.278125 -228.5875 103.55625 -228.375 102.8125 C-226.6003512 99.18253654 -224.13869148 97.4981422 -221 95 C-219.99426222 93.67098936 -218.99204592 92.33926199 -218 91 C-217.34 91 -216.68 91 -216 91 C-215.62875 90.13375 -215.62875 90.13375 -215.25 89.25 C-213.81700012 86.67060021 -212.21575324 84.93878408 -210 83 C-209.34 83 -208.68 83 -208 83 C-207.731875 82.360625 -207.46375 81.72125 -207.1875 81.0625 C-206 79 -206 79 -203 78 C-202.62875 77.13375 -202.62875 77.13375 -202.25 76.25 C-200.61721904 73.31099427 -198.50066831 72.08802674 -195.74609375 70.23828125 C-193.80766505 68.93696924 -193.80766505 68.93696924 -191.6875 66.6875 C-191.130625 66.130625 -190.57375 65.57375 -190 65 C-189.34 65 -188.68 65 -188 65 C-188 64.34 -188 63.68 -188 63 C-181.44694189 57.29101261 -173.64897777 52.70429074 -166.4375 47.875 C-165.56391846 47.28944336 -164.69033691 46.70388672 -163.7902832 46.10058594 C-154.66654721 40.03347668 -145.50251685 34.56195576 -135.5625 29.9375 C-134.63800049 29.5034082 -133.71350098 29.06931641 -132.76098633 28.62207031 C-130.9586995 27.77726326 -129.15528738 26.93485136 -127.35058594 26.09521484 C-125.48218189 25.22466431 -123.61904979 24.3428008 -121.7578125 23.45703125 C-108.61578046 17.28546909 -94.94784303 12.91617973 -81 9 C-79.91460938 8.67386719 -78.82921875 8.34773438 -77.7109375 8.01171875 C-17.05177112 -8.52588556 -17.05177112 -8.52588556 0 0 Z " fill="#FE904C" transform="translate(993,427)"/>
<path d="M0 0 C3.58331625 -0.02907084 7.16660208 -0.04682263 10.75 -0.0625 C11.76578125 -0.07087891 12.7815625 -0.07925781 13.828125 -0.08789062 C14.8078125 -0.09111328 15.7875 -0.09433594 16.796875 -0.09765625 C17.69760742 -0.10289307 18.59833984 -0.10812988 19.52636719 -0.11352539 C21.85013747 -0.00687782 23.76580338 0.39411132 26 1 C27.945182 1.19058226 29.89072501 1.37839536 31.83813477 1.54467773 C40.69285537 2.31853412 49.34800942 3.69239782 58.0625 5.4375 C59.09592529 5.6427832 60.12935059 5.84806641 61.1940918 6.05957031 C87.44787878 11.46905677 112.5698929 22.19852211 136.02978516 34.94384766 C138.65853922 36.35301619 141.32312868 37.68497101 144 39 C144 39.66 144 40.32 144 41 C145.175625 41.2784375 145.175625 41.2784375 146.375 41.5625 C150.56509431 43.22408912 153.76461551 45.4902046 157.3984375 48.125 C160.56167707 50.4048123 163.81541021 52.52502002 167.08984375 54.640625 C168.93834628 55.95612373 170.41181899 57.38919533 172 59 C172.66 59.33 173.32 59.66 174 60 C174 60.66 174 61.32 174 62 C174.80630859 62.33064453 174.80630859 62.33064453 175.62890625 62.66796875 C178.80193962 64.45051303 181.30304514 66.8359151 183.9375 69.3125 C184.44990234 69.78623047 184.96230469 70.25996094 185.49023438 70.74804688 C187.93518727 73.01902599 190.32243497 75.3243178 192.67578125 77.69140625 C194.4822133 79.48569422 196.25338986 81.06199711 198.25 82.625 C204.09571139 87.55852346 209.87753 93.96205174 213 101 C213.66 101 214.32 101 215 101 C215.66 102.65 216.32 104.3 217 106 C217.66 106 218.32 106 219 106 C220.17333984 107.37353516 220.17333984 107.37353516 221.4609375 109.2890625 C222.16863281 110.33126953 222.16863281 110.33126953 222.890625 111.39453125 C223.38046875 112.13058594 223.8703125 112.86664062 224.375 113.625 C224.85710937 114.33785156 225.33921875 115.05070313 225.8359375 115.78515625 C226.788815 117.19634711 227.7378419 118.61014621 228.68286133 120.02661133 C229.83264164 121.74925716 230.99531897 123.46328087 232.16015625 125.17578125 C233.94294964 127.91242587 235.52578404 130.68166982 237.0625 133.5625 C238.47696196 136.20758138 239.89622395 138.82732116 241.44140625 141.3984375 C256 165.69924812 256 165.69924812 256 175 C256.66 175 257.32 175 258 175 C262.67442289 188.60257061 267.26882341 202.18107969 269.5078125 216.4375 C269.98442253 219.13906942 269.98442253 219.13906942 270.95703125 222.26171875 C288.07030827 283.6003184 271.11406337 355.56788545 241 410 C240.46632813 410.969375 239.93265625 411.93875 239.3828125 412.9375 C238.26264711 414.96265777 237.13642557 416.98393733 236 419 C235.34 419 234.68 419 234 419 C233.88527344 419.57234375 233.77054688 420.1446875 233.65234375 420.734375 C232.93817644 423.21471656 231.92692128 425.06368697 230.5625 427.25 C230.13066406 427.95640625 229.69882813 428.6628125 229.25390625 429.390625 C228.84011719 429.92171875 228.42632813 430.4528125 228 431 C227.34 431 226.68 431 226 431 C225.89349121 431.57596924 225.78698242 432.15193848 225.67724609 432.74536133 C224.40455898 436.98229914 221.30203254 440.22870472 218.625 443.6875 C218.03460937 444.47189453 217.44421875 445.25628906 216.8359375 446.06445312 C216.26359375 446.81017578 215.69125 447.55589844 215.1015625 448.32421875 C214.31773193 449.3464856 214.31773193 449.3464856 213.51806641 450.3894043 C212 452 212 452 209 453 C208.30118776 454.31677017 207.6399869 455.65365718 207 457 C196.60408161 469.8666972 184.129777 481.28456985 171.125 491.4375 C170.55273682 491.88754395 169.98047363 492.33758789 169.39086914 492.80126953 C165.23624621 496 165.23624621 496 163 496 C163 496.66 163 497.32 163 498 C162.071875 498.433125 161.14375 498.86625 160.1875 499.3125 C157.40144112 500.78747235 156.1307107 501.84343116 154 504 C151.60146638 505.52864291 149.20185757 507.00045236 146.75 508.4375 C146.10675781 508.81970703 145.46351563 509.20191406 144.80078125 509.59570312 C128.20989679 519.42672017 111.83088741 527.5724157 93.66015625 534.04296875 C92.17801835 534.57619017 90.6985054 535.11754378 89.23095703 535.68969727 C84.14654729 537.66080429 79.02646708 539.19369139 73.75 540.5625 C72.92387207 540.77938477 72.09774414 540.99626953 71.24658203 541.21972656 C65.55506114 542.68227765 59.87989942 543.83380894 54.0546875 544.640625 C52.01364554 544.79478582 52.01364554 544.79478582 51 546 C48.6741169 546.37510556 46.3652609 546.69301876 44.02734375 546.97265625 C42.95438805 547.1037101 42.95438805 547.1037101 41.85975647 547.2374115 C40.33248549 547.42209035 38.80492047 547.60435065 37.27709961 547.78442383 C34.99784336 548.05532781 32.72072273 548.3406347 30.44335938 548.62695312 C10.2251797 551.08691474 10.2251797 551.08691474 1 550 C-1.62588184 546.06117724 -1.27516748 542.71353187 -1.24888897 538.14338684 C-1.25149625 537.22234881 -1.25410354 536.30131078 -1.25678983 535.35236251 C-1.26313293 532.23720036 -1.25510008 529.1222365 -1.24723816 526.00708008 C-1.24882502 523.76273683 -1.25128739 521.51839405 -1.25455457 519.27405262 C-1.26099384 513.08414329 -1.25488006 506.89429895 -1.24679029 500.70439386 C-1.24090557 494.72161316 -1.24438046 488.7388401 -1.2476195 482.75605902 C-1.25390228 470.51334007 -1.2507143 458.27064036 -1.24202538 446.02792358 C-1.23341989 433.90033795 -1.22850501 421.77276095 -1.22869301 409.64517212 C-1.22870065 408.89164106 -1.2287083 408.13811001 -1.22871618 407.36174468 C-1.22875708 404.30315301 -1.22882269 401.24456134 -1.22892199 398.18596967 C-1.22982868 369.47601934 -1.21987401 340.7660822 -1.20449232 312.05613644 C-1.19086782 286.53188852 -1.18463101 261.00764996 -1.18530273 235.48339844 C-1.18534315 233.84456893 -1.18538351 232.20573942 -1.18542381 230.56690991 C-1.18544416 229.75671572 -1.18546452 228.94652153 -1.18548548 228.11177601 C-1.18558627 224.03362887 -1.18567686 219.95548173 -1.18575573 215.87733459 C-1.18577244 215.07283281 -1.18578916 214.26833102 -1.18580638 213.43945039 C-1.18617132 192.1310269 -1.18163535 170.82260459 -1.17542917 149.51418209 C-1.17520889 148.75647069 -1.17498862 147.9987593 -1.17476168 147.21808695 C-1.17387341 144.17094797 -1.17298502 141.123809 -1.17207072 138.07667003 C-1.16890752 127.46255262 -1.16740104 116.84843613 -1.16695923 106.23431829 C-1.16636286 92.55807454 -1.16238289 78.88183854 -1.15252777 65.20559812 C-1.14785516 58.6068855 -1.1448684 52.00818036 -1.14612198 45.40946579 C-1.14721244 39.37704135 -1.14372678 33.34463809 -1.13647345 27.31221807 C-1.13465169 25.12182546 -1.13453796 22.93143067 -1.13624074 20.74103796 C-1.13828922 17.77953747 -1.13427115 14.81810749 -1.12863445 11.85661316 C-1.13068977 10.99258782 -1.13274509 10.12856249 -1.13486269 9.23835456 C-1.12315565 5.90513519 -1.06151557 3.18454672 0 0 Z " fill="#8B51FE" transform="translate(1032,671)"/>
<path d="M0 0 C0.87108398 0.05188477 1.74216797 0.10376953 2.63964844 0.15722656 C28.08892381 1.81138523 53.18746327 5.07223764 77.5625 12.8125 C78.30242187 13.04453125 79.04234375 13.2765625 79.8046875 13.515625 C82.06882543 14.25040184 84.31429839 15.03022107 86.5625 15.8125 C87.82935266 16.23720122 89.09628784 16.66165635 90.36328125 17.0859375 C110.01027447 23.7443241 128.40250743 33.28783018 146.25 43.8125 C146.89195312 44.18616699 147.53390625 44.55983398 148.1953125 44.94482422 C149.68758576 45.84259775 151.13148701 46.81998874 152.5625 47.8125 C152.5625 48.4725 152.5625 49.1325 152.5625 49.8125 C153.13484375 49.92722656 153.7071875 50.04195312 154.296875 50.16015625 C156.77721656 50.87432356 158.62618697 51.88557872 160.8125 53.25 C161.51890625 53.68183594 162.2253125 54.11367188 162.953125 54.55859375 C163.74976563 55.17927734 163.74976563 55.17927734 164.5625 55.8125 C164.5625 56.4725 164.5625 57.1325 164.5625 57.8125 C165.243125 58.039375 165.92375 58.26625 166.625 58.5 C170.2613709 60.12476146 173.59079263 62.14053257 176.5625 64.8125 C176.5625 65.4725 176.5625 66.1325 176.5625 66.8125 C177.284375 67.039375 178.00625 67.26625 178.75 67.5 C182.12832327 69.07655086 184.00046738 71.12236575 186.5625 73.8125 C187.9546875 74.8953125 187.9546875 74.8953125 189.375 76 C190.096875 76.598125 190.81875 77.19625 191.5625 77.8125 C191.5625 78.4725 191.5625 79.1325 191.5625 79.8125 C192.8825 80.4725 194.2025 81.1325 195.5625 81.8125 C195.5625 82.4725 195.5625 83.1325 195.5625 83.8125 C196.119375 84.039375 196.67625 84.26625 197.25 84.5 C200.22409588 86.18800036 202.28258865 88.27926517 204.5625 90.8125 C204.5625 91.4725 204.5625 92.1325 204.5625 92.8125 C205.8825 93.4725 207.2025 94.1325 208.5625 94.8125 C208.5625 95.4725 208.5625 96.1325 208.5625 96.8125 C209.119375 96.998125 209.67625 97.18375 210.25 97.375 C213.13481865 99.16826564 214.45192729 101.27825705 216.32421875 104.06640625 C217.62553076 106.00483495 217.62553076 106.00483495 219.875 108.125 C221.5625 109.8125 221.5625 109.8125 221.5625 111.8125 C222.2225 111.8125 222.8825 111.8125 223.5625 111.8125 C225.15486985 113.67521623 226.61606647 115.52906103 228.0625 117.5 C228.46597656 118.03044922 228.86945313 118.56089844 229.28515625 119.10742188 C231.59408831 122.21266879 233.31193737 125.14916707 234.5625 128.8125 C235.2225 128.8125 235.8825 128.8125 236.5625 128.8125 C237.76310015 130.64001451 238.87322301 132.52737841 239.9375 134.4375 C242.7975776 139.51422705 242.7975776 139.51422705 246 144.375 C247.5625 146.8125 247.5625 146.8125 247.5625 149.8125 C248.2225 149.8125 248.8825 149.8125 249.5625 149.8125 C251.0231285 152.45988916 251.5625 153.70698334 251.5625 156.8125 C252.2225 156.8125 252.8825 156.8125 253.5625 156.8125 C254.73624173 159.24681639 255.90165763 161.68454182 257.0625 164.125 C257.39636719 164.81529297 257.73023438 165.50558594 258.07421875 166.21679688 C260.5625 171.47265625 260.5625 171.47265625 260.5625 174.8125 C261.2225 174.8125 261.8825 174.8125 262.5625 174.8125 C268.48652863 189.30894654 274.19024678 203.86357261 277.875 219.1015625 C278.54252436 221.89580937 278.54252436 221.89580937 279.625 224.875 C280.81562904 228.60563765 281.40155142 232.36213697 282.0546875 236.21875 C282.51043087 238.92409904 282.51043087 238.92409904 283.6875 241.8125 C285.03466082 246.43133708 284.71553777 251.03432089 284.5625 255.8125 C282.10520454 257.04114773 280.51024115 256.93894719 277.76171875 256.94113445 C276.74181854 256.9443589 275.72191833 256.94758335 274.67111206 256.9509055 C273.54214508 256.9493569 272.4131781 256.9478083 271.25 256.94621277 C270.05730499 256.94847833 268.86460999 256.95074388 267.63577271 256.95307809 C264.31487522 256.95833077 260.99403169 256.95906001 257.67313385 256.95788372 C254.09572457 256.95768025 250.51832347 256.96319325 246.94091797 256.96794128 C239.92869248 256.97625974 232.91647539 256.97899665 225.90424538 256.97955366 C220.20732122 256.9800282 214.51039984 256.98207981 208.81347656 256.98525429 C192.67686448 256.99406364 176.54025906 256.99867315 160.40364456 256.99792381 C159.53309811 256.99788386 158.66255165 256.9978439 157.765625 256.99780273 C156.45821917 256.99774141 156.45821917 256.99774141 155.12440109 256.99767885 C140.9900411 256.99727216 126.85570773 257.00684675 112.72135544 257.0209411 C98.22322146 257.03528466 83.72510048 257.04221242 69.22695923 257.04134732 C61.08130775 257.04101468 52.93568417 257.04379106 44.79003906 257.05452538 C37.85631275 257.06360379 30.92262699 257.0658276 23.98889732 257.05901595 C20.44844139 257.05573739 16.9080634 257.05574182 13.36761475 257.0643692 C9.53670648 257.07360875 5.70591371 257.06749322 1.875 257.05973816 C0.74603302 257.06488172 -0.38293396 257.07002529 -1.54611206 257.07532471 C-2.56601227 257.07072592 -3.58591248 257.06612712 -4.63671875 257.06138897 C-5.52190186 257.06160634 -6.40708496 257.06182371 -7.3190918 257.06204766 C-9.4375 256.8125 -9.4375 256.8125 -11.4375 254.8125 C-11.689349 252.94416094 -11.689349 252.94416094 -11.69197559 250.6207962 C-11.69780779 249.73674842 -11.70363998 248.85270064 -11.70964891 247.94186354 C-11.70586958 246.96464354 -11.70209026 245.98742354 -11.69819641 244.98059082 C-11.70202196 243.94715436 -11.70584751 242.91371789 -11.70978898 241.84896517 C-11.72016166 238.36345205 -11.71611876 234.87810235 -11.7121582 231.39257812 C-11.71650229 228.90294745 -11.72168441 226.41331812 -11.72764587 223.9236908 C-11.739682 217.84992218 -11.74218344 211.77621854 -11.73984561 205.70244396 C-11.73806527 200.7678159 -11.73980598 195.83320128 -11.74407005 190.89857483 C-11.74466524 190.19725686 -11.74526043 189.49593889 -11.74587366 188.77336887 C-11.74708536 187.34882239 -11.74829949 185.92427592 -11.74951603 184.49972945 C-11.76040119 171.12995673 -11.75822436 157.7602092 -11.75213119 144.39043504 C-11.7469601 132.14751373 -11.75822076 119.90467193 -11.77722941 107.66176635 C-11.79658003 95.10272801 -11.80486877 82.54372734 -11.80110615 69.98467398 C-11.79919001 62.92888873 -11.80172173 55.8731712 -11.81582069 48.81739807 C-11.82893821 42.18545507 -11.82651235 35.55364554 -11.81340981 28.9216938 C-11.81103136 26.48111989 -11.81382361 24.04053494 -11.82203293 21.59997368 C-11.83239519 18.28126296 -11.82448487 14.96309937 -11.8117218 11.64440918 C-11.81909609 10.66718918 -11.82647037 9.68996919 -11.83406812 8.68313646 C-11.8232583 7.35706479 -11.8232583 7.35706479 -11.81223011 6.0042038 C-11.81228513 5.23749343 -11.81234014 4.47078307 -11.81239682 3.68083906 C-10.70633533 -1.83133857 -4.23216247 -0.27416836 0 0 Z " fill="#FEDD58" transform="translate(704.4375,964.1875)"/>
<path d="M0 0 C1.17119385 0.00161133 2.3423877 0.00322266 3.54907227 0.00488281 C14.05871191 0.1510989 23.87106707 1.64074961 34 4.375 C35.09957031 4.66375 36.19914062 4.9525 37.33203125 5.25 C56.04574358 10.86160852 74.63520049 22.13565824 88 36.375 C88.70032336 37.6909671 89.37836834 39.02008439 90 40.375 C92.0335948 41.64304566 92.0335948 41.64304566 94 42.375 C94 43.035 94 43.695 94 44.375 C94.99 44.705 95.98 45.035 97 45.375 C97.70151152 46.6903341 98.36525925 48.02617592 99 49.375 C99.44730469 49.81199219 99.89460938 50.24898438 100.35546875 50.69921875 C110.60346326 61.1419495 115.83199785 76.66954097 120 90.375 C120.31066406 91.38046875 120.62132812 92.3859375 120.94140625 93.421875 C123.94725814 103.70275973 124.19500798 113.89816706 124.1875 124.5625 C124.18669434 125.75198242 124.18588867 126.94146484 124.18505859 128.16699219 C123.97601878 158.21134205 113.06836257 184.040382 93.8125 206.875 C93.30122559 207.48706299 92.78995117 208.09912598 92.26318359 208.72973633 C89.66511771 211.75458485 87.66231595 213.69117657 84 215.375 C83.67 216.365 83.34 217.355 83 218.375 C80.94873936 220.04387246 78.92017193 221.56393857 76.75 223.0625 C76.12174316 223.50166748 75.49348633 223.94083496 74.84619141 224.39331055 C65.02701995 231.19337602 55.26267315 237.22794949 44 241.375 C43.05769531 241.73335937 42.11539062 242.09171875 41.14453125 242.4609375 C17.32168014 251.01273021 -10.7022707 251.3230032 -35 244.375 C-36.21816406 244.03597656 -37.43632813 243.69695312 -38.69140625 243.34765625 C-48.1318135 240.32973311 -56.61288413 235.46579462 -65.12548828 230.47167969 C-66.74631208 229.52341966 -68.38532056 228.60637053 -70.02734375 227.6953125 C-71.00380859 227.04175781 -71.00380859 227.04175781 -72 226.375 C-72 225.715 -72 225.055 -72 224.375 C-73.65 223.715 -75.3 223.055 -77 222.375 C-77 221.715 -77 221.055 -77 220.375 C-77.58394531 220.106875 -78.16789062 219.83875 -78.76953125 219.5625 C-91.16392443 212.96373375 -100.21978327 199.30048758 -107 187.375 C-107 186.715 -107 186.055 -107 185.375 C-107.66 185.375 -108.32 185.375 -109 185.375 C-110.25664978 182.46899739 -111 180.57895416 -111 177.375 C-111.66 177.375 -112.32 177.375 -113 177.375 C-119.4429642 159.91010963 -119.4429642 159.91010963 -120.67578125 152.0625 C-120.8419609 150.34604233 -120.8419609 150.34604233 -122 149.375 C-122.91417037 144.33296784 -123.14743177 139.39086841 -123.1328125 134.28125 C-123.13376923 133.53089478 -123.13472595 132.78053955 -123.13571167 132.00744629 C-123.13638807 130.43090734 -123.13457174 128.85436553 -123.13037109 127.27783203 C-123.12501514 124.88177155 -123.13033451 122.48589849 -123.13671875 120.08984375 C-123.13605787 118.54947876 -123.13477651 117.00911388 -123.1328125 115.46875 C-123.13483673 114.7612561 -123.13686096 114.05376221 -123.13894653 113.3248291 C-123.10634794 106.31727625 -122.00673951 100.06413171 -120 93.375 C-119.79503906 92.55 -119.59007812 91.725 -119.37890625 90.875 C-117.64101062 83.96269198 -115.12423442 77.77083838 -112 71.375 C-111.69320313 70.71113281 -111.38640625 70.04726563 -111.0703125 69.36328125 C-107.11118222 61.0070638 -102.15260304 52.2838605 -96 45.375 C-95.34 45.375 -94.68 45.375 -94 45.375 C-93.7525 44.818125 -93.505 44.26125 -93.25 43.6875 C-82.3136482 23.45524917 -54.36020051 10.86658959 -33.25 4.5625 C-32.60216553 4.367771 -31.95433105 4.17304199 -31.28686523 3.97241211 C-20.97270858 1.05287456 -10.6963209 -0.01554585 0 0 Z " fill="#FE65C3" transform="translate(1155,425.625)"/>
<path d="M0 0 C-0.33 0.66 -0.66 1.32 -1 2 C2.96 2.33 6.92 2.66 11 3 C11 3.33 11 3.66 11 4 C5.39 4 -0.22 4 -6 4 C-6 86.17 -6 168.34 -6 253 C89.7 253 185.4 253 284 253 C283.67 249.7 283.34 246.4 283 243 C284.5994614 246.19892281 285.42595236 248.35462576 286.125 251.75 C286.29257812 252.54921875 286.46015625 253.3484375 286.6328125 254.171875 C286.75398438 254.77515625 286.87515625 255.3784375 287 256 C284.54270454 257.22864773 282.94774115 257.12644719 280.19921875 257.12863445 C279.17931854 257.1318589 278.15941833 257.13508335 277.10861206 257.1384055 C275.97964508 257.1368569 274.8506781 257.1353083 273.6875 257.13371277 C272.49480499 257.13597833 271.30210999 257.13824388 270.07327271 257.14057809 C266.75237522 257.14583077 263.43153169 257.14656001 260.11063385 257.14538372 C256.53322457 257.14518025 252.95582347 257.15069325 249.37841797 257.15544128 C242.36619248 257.16375974 235.35397539 257.16649665 228.34174538 257.16705366 C222.64482122 257.1675282 216.94789984 257.16957981 211.25097656 257.17275429 C195.11436448 257.18156364 178.97775906 257.18617315 162.84114456 257.18542381 C161.97059811 257.18538386 161.10005165 257.1853439 160.203125 257.18530273 C158.89571917 257.18524141 158.89571917 257.18524141 157.56190109 257.18517885 C143.4275411 257.18477216 129.29320773 257.19434675 115.15885544 257.2084411 C100.66072146 257.22278466 86.16260048 257.22971242 71.66445923 257.22884732 C63.51880775 257.22851468 55.37318417 257.23129106 47.22753906 257.24202538 C40.29381275 257.25110379 33.36012699 257.2533276 26.42639732 257.24651595 C22.88594139 257.24323739 19.3455634 257.24324182 15.80511475 257.2518692 C11.97420648 257.26110875 8.14341371 257.25499322 4.3125 257.24723816 C3.18353302 257.25238172 2.05456604 257.25752529 0.89138794 257.26282471 C-0.12851227 257.25822592 -1.14841248 257.25362712 -2.19921875 257.24888897 C-3.08440186 257.24910634 -3.96958496 257.24932371 -4.8815918 257.24954766 C-7 257 -7 257 -9 255 C-9.251849 253.13166094 -9.251849 253.13166094 -9.25447559 250.8082962 C-9.26030779 249.92424842 -9.26613998 249.04020064 -9.27214891 248.12936354 C-9.26836958 247.15214354 -9.26459026 246.17492354 -9.26069641 245.16809082 C-9.26452196 244.13465436 -9.26834751 243.10121789 -9.27228898 242.03646517 C-9.28266166 238.55095205 -9.27861876 235.06560235 -9.2746582 231.58007812 C-9.27900229 229.09044745 -9.28418441 226.60081812 -9.29014587 224.1111908 C-9.302182 218.03742218 -9.30468344 211.96371854 -9.30234561 205.88994396 C-9.30056527 200.9553159 -9.30230598 196.02070128 -9.30657005 191.08607483 C-9.30716524 190.38475686 -9.30776043 189.68343889 -9.30837366 188.96086887 C-9.30958536 187.53632239 -9.31079949 186.11177592 -9.31201603 184.68722945 C-9.32290119 171.31745673 -9.32072436 157.9477092 -9.31463119 144.57793504 C-9.3094601 132.33501373 -9.32072076 120.09217193 -9.33972941 107.84926635 C-9.35908003 95.29022801 -9.36736877 82.73122734 -9.36360615 70.17217398 C-9.36169001 63.11638873 -9.36422173 56.0606712 -9.37832069 49.00489807 C-9.39143821 42.37295507 -9.38901235 35.74114554 -9.37590981 29.1091938 C-9.37353136 26.66861989 -9.37632361 24.22803494 -9.38453293 21.78747368 C-9.39489519 18.46876296 -9.38698487 15.15059937 -9.3742218 11.83190918 C-9.38159609 10.85468918 -9.38897037 9.87746919 -9.39656812 8.87063646 C-9.3857583 7.54456479 -9.3857583 7.54456479 -9.37473011 6.1917038 C-9.37478513 5.42499343 -9.37484014 4.65828307 -9.37489682 3.86833906 C-8.41752497 -0.9028276 -3.84203015 -0.1707569 0 0 Z " fill="#FEDC49" transform="translate(702,964)"/>
<path d="M0 0 C93.72 0 187.44 0 284 0 C284.33 0.99 284.66 1.98 285 3 C249.28737108 3.02288015 213.57474344 3.04050525 177.8621087 3.05106533 C173.64757441 3.05231606 169.43304013 3.05361038 165.21850586 3.05493164 C164.37945466 3.05519395 163.54040346 3.05545626 162.67592647 3.05572652 C149.08343018 3.06007989 135.49093811 3.06796563 121.89844433 3.0771528 C107.95519744 3.08649856 94.01195277 3.09205757 80.06870288 3.09408849 C71.46238453 3.0954618 62.85607812 3.09980202 54.24976345 3.10791647 C48.35110615 3.11319529 42.45245504 3.11480169 36.55379555 3.11350138 C33.14869489 3.11285979 29.74361511 3.11385542 26.33851814 3.11920547 C22.64870169 3.12415972 18.95893684 3.1229918 15.26911926 3.12025452 C14.190327 3.12316736 13.11153473 3.1260802 12.0000518 3.12908131 C11.0112624 3.12709026 10.022473 3.12509921 9.00372028 3.12304783 C8.15200758 3.12342755 7.30029488 3.12380727 6.42277271 3.1241985 C3.86651438 2.99315713 1.49427385 2.56141041 -1 2 C-0.67 1.34 -0.34 0.68 0 0 Z " fill="#FEE737" transform="translate(702,1218)"/>
<path d="M0 0 C0 0.33 0 0.66 0 1 C4.29 1.33 8.58 1.66 13 2 C13 198.02 13 394.04 13 596 C12.34 595.67 11.68 595.34 11 595 C11.33 399.64 11.66 204.28 12 3 C-11.07306303 4.43370552 -11.07306303 4.43370552 -33.75 7.5625 C-36.28613349 8.00317568 -38.82258439 8.4420292 -41.359375 8.87890625 C-43.07157227 9.17692139 -43.07157227 9.17692139 -44.81835938 9.48095703 C-48.87110315 10.14210906 -52.91330446 10.60636807 -57 11 C-53.4798612 9.20114628 -49.98425463 7.96764187 -46.21875 6.78125 C-44.01900372 6.07567317 -44.01900372 6.07567317 -42.19628906 5.00219727 C-39.63289269 3.83248383 -37.43752633 3.50967363 -34.640625 3.18359375 C-33.60679687 3.05919922 -32.57296875 2.93480469 -31.5078125 2.80664062 C-29.89519531 2.62391602 -29.89519531 2.62391602 -28.25 2.4375 C-27.19039062 2.31181641 -26.13078125 2.18613281 -25.0390625 2.05664062 C-22.96915875 1.81138528 -20.89885181 1.56950504 -18.828125 1.33129883 C-16.38744216 1.04538666 -13.95182719 0.73534803 -11.515625 0.4140625 C-7.60820787 -0.04614441 -3.92598012 -0.07010679 0 0 Z " fill="#FE8234" transform="translate(978,426)"/>
<path d="M0 0 C1.98 0.495 1.98 0.495 4 1 C-0.0248087 7.15058794 -4.44102602 12.89672513 -9.1875 18.5 C-9.69829102 19.11117676 -10.20908203 19.72235352 -10.73535156 20.35205078 C-13.3334373 23.37862551 -15.33657735 25.31566775 -19 27 C-19.33 27.99 -19.66 28.98 -20 30 C-22.05126064 31.66887246 -24.07982807 33.18893857 -26.25 34.6875 C-26.87825684 35.12666748 -27.50651367 35.56583496 -28.15380859 36.01831055 C-37.97298005 42.81837602 -47.73732685 48.85294949 -59 53 C-60.41345703 53.53753906 -60.41345703 53.53753906 -61.85546875 54.0859375 C-85.67831986 62.63773021 -113.7022707 62.9480032 -138 56 C-139.21816406 55.66097656 -140.43632813 55.32195313 -141.69140625 54.97265625 C-151.1318135 51.95473311 -159.61288413 47.09079462 -168.12548828 42.09667969 C-169.74631208 41.14841966 -171.38532056 40.23137053 -173.02734375 39.3203125 C-173.67832031 38.88460937 -174.32929687 38.44890625 -175 38 C-175 37.34 -175 36.68 -175 36 C-176.65 35.34 -178.3 34.68 -180 34 C-180 33.34 -180 32.68 -180 32 C-180.598125 31.731875 -181.19625 31.46375 -181.8125 31.1875 C-183.97224808 30.01506533 -185.35790256 28.80630718 -187 27 C-185.30859375 26.25390625 -185.30859375 26.25390625 -183 26 C-180.66015625 27.58984375 -180.66015625 27.58984375 -178.0625 29.9375 C-153.05114446 51.40446558 -122.17278544 57.76858046 -90 56 C-58.4236016 53.32647027 -31.25865474 37.19025934 -10.40625 13.86328125 C-6.67724584 9.42600844 -3.29825672 4.76312493 0 0 Z " fill="#FD4EC1" transform="translate(1258,614)"/>
<path d="M0 0 C0.721875 0.309375 1.44375 0.61875 2.1875 0.9375 C4.92064829 2.07436775 4.92064829 2.07436775 7.625 2.4375 C10.34168176 3.08092463 11.19616647 3.93847597 13 6 C13.66 6.33 14.32 6.66 15 7 C15 7.66 15 8.32 15 9 C15.53753906 9.22042969 16.07507812 9.44085937 16.62890625 9.66796875 C19.80193962 11.45051303 22.30304514 13.8359151 24.9375 16.3125 C25.44990234 16.78623047 25.96230469 17.25996094 26.49023438 17.74804688 C28.93518727 20.01902599 31.32243497 22.3243178 33.67578125 24.69140625 C35.4822133 26.48569422 37.25338986 28.06199711 39.25 29.625 C45.09571139 34.55852346 50.87753 40.96205174 54 48 C54.66 48 55.32 48 56 48 C56.66 49.65 57.32 51.3 58 53 C58.66 53 59.32 53 60 53 C61.17333984 54.37353516 61.17333984 54.37353516 62.4609375 56.2890625 C62.93273438 56.98386719 63.40453125 57.67867187 63.890625 58.39453125 C64.38046875 59.13058594 64.8703125 59.86664062 65.375 60.625 C65.85710937 61.33785156 66.33921875 62.05070313 66.8359375 62.78515625 C67.788815 64.19634711 68.7378419 65.61014621 69.68286133 67.02661133 C70.83264164 68.74925716 71.99531897 70.46328087 73.16015625 72.17578125 C74.94294964 74.91242587 76.52578404 77.68166982 78.0625 80.5625 C79.52216317 83.29210884 80.97477316 85.96047795 82.640625 88.5703125 C84.60649813 92.08402826 84.66248156 95.01728245 85 99 C84.34 99 83.68 99 83 99 C82.505 97.80375 82.01 96.6075 81.5 95.375 C76.84453246 84.92898625 70.79157406 75.18013613 64 66 C63.2884375 65.03320312 62.576875 64.06640625 61.84375 63.0703125 C59.58445955 60.02955515 57.29920069 57.01066664 55 54 C54.38640625 53.18917969 53.7728125 52.37835937 53.140625 51.54296875 C48.97857426 46.18032646 44.48698754 41.16237037 39.875 36.1875 C38.99581909 35.23556763 38.99581909 35.23556763 38.09887695 34.2644043 C35.38248983 31.36802254 32.67122237 28.66105593 29.5703125 26.17578125 C28.72210937 25.45777344 27.87390625 24.73976563 27 24 C27 23.34 27 22.68 27 22 C26.34 22 25.68 22 25 22 C25 21.34 25 20.68 25 20 C24.1028125 19.566875 24.1028125 19.566875 23.1875 19.125 C21 18 21 18 18 16 C18 15.34 18 14.68 18 14 C17.34 14 16.68 14 16 14 C16 13.34 16 12.68 16 12 C13.525 11.01 13.525 11.01 11 10 C11 9.34 11 8.68 11 8 C10.29875 7.773125 9.5975 7.54625 8.875 7.3125 C5.28413464 5.6731919 2.92219514 3.65036303 0 1 C0 0.67 0 0.34 0 0 Z " fill="#8841FE" transform="translate(1191,724)"/>
<path d="M0 0 C0.99 1.485 0.99 1.485 2 3 C1.01 3.33 0.02 3.66 -1 4 C-1 4.66 -1 5.32 -1 6 C-2.65770921 7.33619621 -4.37852016 8.59462139 -6.125 9.8125 C-11.61390911 13.7221194 -16.682059 17.37748097 -21.06640625 22.5390625 C-25.39832072 27.52774013 -30.01902216 32.20289475 -34.6875 36.875 C-35.52861328 37.72835937 -36.36972656 38.58171875 -37.23632812 39.4609375 C-38.04908203 40.275625 -38.86183594 41.0903125 -39.69921875 41.9296875 C-40.42971436 42.66429199 -41.16020996 43.39889648 -41.9128418 44.15576172 C-43.88843744 45.90142197 -45.65257266 46.85895056 -48 48 C-49.56578634 50.29984093 -49.56578634 50.29984093 -51 53 C-52.33122125 54.95333653 -53.68612151 56.89071545 -55.0625 58.8125 C-55.75472656 59.78832031 -56.44695313 60.76414062 -57.16015625 61.76953125 C-57.76730469 62.50558594 -58.37445312 63.24164062 -59 64 C-59.66 64 -60.32 64 -61 64 C-61.24492188 64.70511719 -61.48984375 65.41023437 -61.7421875 66.13671875 C-63.17467528 69.39763037 -64.99521869 71.96134115 -67.125 74.8125 C-67.84945312 75.78832031 -68.57390625 76.76414062 -69.3203125 77.76953125 C-69.87460937 78.50558594 -70.42890625 79.24164062 -71 80 C-72 78 -72 78 -72 75 C-68.34986966 68.14487716 -63.03281773 62.03206581 -58.26953125 55.91796875 C-56.91661265 54.17850198 -55.59051091 52.41678826 -54.32421875 50.61328125 C-53.88722656 50.08089844 -53.45023438 49.54851563 -53 49 C-52.34 49 -51.68 49 -51 49 C-50.79375 48.278125 -50.5875 47.55625 -50.375 46.8125 C-48.6003512 43.18253654 -46.13869148 41.4981422 -43 39 C-41.99426222 37.67098936 -40.99204592 36.33926199 -40 35 C-39.34 35 -38.68 35 -38 35 C-37.7525 34.4225 -37.505 33.845 -37.25 33.25 C-35.81700012 30.67060021 -34.21575324 28.93878408 -32 27 C-31.34 27 -30.68 27 -30 27 C-29.731875 26.360625 -29.46375 25.72125 -29.1875 25.0625 C-28 23 -28 23 -25 22 C-24.7525 21.4225 -24.505 20.845 -24.25 20.25 C-22.61721904 17.31099427 -20.50066831 16.08802674 -17.74609375 14.23828125 C-15.80766505 12.93696924 -15.80766505 12.93696924 -13.6875 10.6875 C-13.130625 10.130625 -12.57375 9.57375 -12 9 C-11.34 9 -10.68 9 -10 9 C-10 8.34 -10 7.68 -10 7 C-7.8125 5.2734375 -7.8125 5.2734375 -5 3.375 C-4.071875 2.74335938 -3.14375 2.11171875 -2.1875 1.4609375 C-1.465625 0.97882813 -0.74375 0.49671875 0 0 Z " fill="#FE8B3B" transform="translate(815,483)"/>
<path d="M0 0 C1.14397674 3.43193022 1.00286511 4.576426 0 8 C-1.17062103 10.13729138 -2.40802841 12.23853748 -3.6875 14.3125 C-10.676798 26.1044824 -14.63508441 38.51528265 -17 52 C-17.20496094 53.07894531 -17.40992188 54.15789063 -17.62109375 55.26953125 C-19.73291224 67.31417877 -19.24280243 78.90334332 -17.62402344 90.9597168 C-17.15317677 94.61201451 -16.95544405 97.4724832 -18 101 C-20.54836363 99.11642689 -20.9894835 98.05558845 -21.58935547 94.88476562 C-22.01303182 90.87671685 -22.14432698 86.93070356 -22.1328125 82.90625 C-22.13376923 82.15589478 -22.13472595 81.40553955 -22.13571167 80.63244629 C-22.13638807 79.05590734 -22.13457174 77.47936553 -22.13037109 75.90283203 C-22.12501514 73.50677155 -22.13033451 71.11089849 -22.13671875 68.71484375 C-22.13605787 67.17447876 -22.13477651 65.63411388 -22.1328125 64.09375 C-22.13483673 63.3862561 -22.13686096 62.67876221 -22.13894653 61.9498291 C-22.10634794 54.94227625 -21.00673951 48.68913171 -19 42 C-18.79503906 41.175 -18.59007812 40.35 -18.37890625 39.5 C-16.64127253 32.58873368 -14.12801339 26.39330636 -11 20 C-10.68160156 19.32453125 -10.36320312 18.6490625 -10.03515625 17.953125 C-7.05702397 11.76679014 -3.50101149 5.90058117 0 0 Z " fill="#FE54BF" transform="translate(1054,477)"/>
<path d="M0 0 C1.20011719 0.00064453 2.40023438 0.00128906 3.63671875 0.00195312 C13.20627273 0.05017596 13.20627273 0.05017596 17 1.1875 C17 2.1775 17 3.1675 17 4.1875 C16.21165771 4.16131592 15.42331543 4.13513184 14.61108398 4.1081543 C-11.6576473 3.35533206 -35.15091771 6.13136818 -58.44140625 19.24609375 C-61 20.1875 -61 20.1875 -63.33984375 19.34765625 C-64.16162109 18.77337891 -64.16162109 18.77337891 -65 18.1875 C-60.74924575 15.20348358 -56.45905429 12.82016986 -51.6875 10.75 C-50.99817383 10.4506958 -50.30884766 10.1513916 -49.59863281 9.84301758 C-44.56699909 7.72040349 -39.48287408 5.93336075 -34.25 4.375 C-33.60248779 4.18043213 -32.95497559 3.98586426 -32.2878418 3.78540039 C-21.57330319 0.75137195 -11.10522519 -0.11631713 0 0 Z " fill="#FE53C1" transform="translate(1156,425.8125)"/>
<path d="M0 0 C4.60491463 0.55258976 8.62949001 1.48338692 13 3 C14.43095514 3.48187312 15.86194773 3.96363506 17.29296875 4.4453125 C36.03772424 10.84103461 53.616818 18.50056795 71 28 C70.505 29.485 70.505 29.485 70 31 C65.76576334 30.06261437 62.14473714 28.16032163 58.3125 26.1875 C52.60457307 23.29023148 46.88047474 20.53171124 41 18 C40.28972656 17.67515625 39.57945313 17.3503125 38.84765625 17.015625 C28.48261511 12.27940234 17.74023755 8.93112037 6.8125 5.75 C5.57435547 5.38648438 4.33621094 5.02296875 3.06054688 4.6484375 C0.04127207 3.76247269 -2.97890274 2.87972611 -6 2 C-2.25 0.875 -2.25 0.875 0 2 C0 1.34 0 0.68 0 0 Z " fill="#8741FD" transform="translate(1099,679)"/>
<path d="M0 0 C3.02042251 3.5192911 4.52908448 7.48337536 6.1875 11.75 C13.80259856 30.68029161 23.92370639 48.02556161 35.63671875 64.71484375 C37 67 37 67 37 70 C30.80004929 67.56430508 27.9565575 61.60726422 25 56 C24.25 53.5625 24.25 53.5625 24 52 C23.34 52 22.68 52 22 52 C20.15637057 48.73486809 18.32690521 45.46201438 16.5 42.1875 C15.97535156 41.25873047 15.45070313 40.32996094 14.91015625 39.37304688 C14.41386719 38.48037109 13.91757812 37.58769531 13.40625 36.66796875 C12.94541016 35.84578857 12.48457031 35.0236084 12.00976562 34.17651367 C11 32 11 32 11 29 C10.34 29 9.68 29 9 29 C2 13.64974619 2 13.64974619 2 9 C1.34 9 0.68 9 0 9 C-1.125 2.25 -1.125 2.25 0 0 Z " fill="#FE8C3C" transform="translate(714,831)"/>
<path d="M0 0 C4.03520597 1.58962659 8.01811282 3.28232318 12 5 C12 5.66 12 6.32 12 7 C12.83273437 7.24621094 13.66546875 7.49242187 14.5234375 7.74609375 C18.47205073 9.1702565 21.96691682 11.02577839 25.625 13.0625 C31.07690247 16.10909593 31.07690247 16.10909593 37 18 C37 18.66 37 19.32 37 20 C38.08897583 20.19360107 38.08897583 20.19360107 39.19995117 20.39111328 C41.8731442 20.97241448 44.25307501 21.75563218 46.80078125 22.7421875 C47.69603516 23.08636719 48.59128906 23.43054688 49.51367188 23.78515625 C50.43728516 24.14480469 51.36089844 24.50445313 52.3125 24.875 C54.14186528 25.58088936 55.97129149 26.28662084 57.80078125 26.9921875 C58.67557129 27.33088867 59.55036133 27.66958984 60.45166016 28.01855469 C63.95909253 29.36937651 67.47822412 30.68707535 71 32 C67.21745018 33.26084994 65.94100994 32.4833666 62.25 31.125 C58.96905515 29.92198689 56.07881381 29.01024852 52.60546875 28.55859375 C48.41371961 27.90916783 44.94345386 26.59370035 41.0625 24.9375 C40.33538818 24.63312012 39.60827637 24.32874023 38.85913086 24.01513672 C31.06352027 20.69660435 23.52284492 16.88949107 16 13 C15.34 12.67 14.68 12.34 14 12 C14 11.34 14 10.68 14 10 C13.21625 9.855625 12.4325 9.71125 11.625 9.5625 C9 9 9 9 7 8 C7 7.34 7 6.68 7 6 C6.030625 5.7525 5.06125 5.505 4.0625 5.25 C3.051875 4.8375 2.04125 4.425 1 4 C0.125 1.875 0.125 1.875 0 0 Z " fill="#FE8A35" transform="translate(832,976)"/>
<path d="M0 0 C2.65442878 3.91585523 2.23602992 8.09895645 2.16015625 12.6328125 C2.15495468 13.46585907 2.14975311 14.29890564 2.14439392 15.15719604 C2.12660765 17.81330957 2.09542917 20.46903442 2.0625 23.125 C2.03489473 25.78806819 2.01019544 28.45108259 1.99131775 31.11422729 C1.97904703 32.77030339 1.96143016 34.42635005 1.93800354 36.08230591 C1.79473461 40.17178605 1.79473461 40.17178605 3 44 C2.37273124 46.8376444 1.67376904 49.58524821 0.875 52.375 C0.64490234 53.18702881 0.41480469 53.99905762 0.17773438 54.83569336 C-2.73064344 64.83769976 -6.68266034 74.03971699 -12 83 C-12.99 82.67 -13.98 82.34 -15 82 C-13.44488431 78.0415237 -11.76436043 74.14739029 -10.0625 70.25 C-5.36017948 59.26752274 -2.74179882 48.79593109 -1 37 C-0.89921143 36.33234619 -0.79842285 35.66469238 -0.69458008 34.97680664 C0.24961943 27.81572424 0.11044666 20.64793972 0.0625 13.4375 C0.05798828 12.14263672 0.05347656 10.84777344 0.04882812 9.51367188 C0.03712601 6.342399 0.02073113 3.17122454 0 0 Z " fill="#FE4FBE" transform="translate(1275,530)"/>
<path d="M0 0 C1.32 0 2.64 0 4 0 C5.4606285 2.64738916 6 3.89448334 6 7 C6.66 7 7.32 7 8 7 C9.4606285 9.64738916 10 10.89448334 10 14 C10.66 14 11.32 14 12 14 C13.17374173 16.43431639 14.33915763 18.87204182 15.5 21.3125 C16.00080078 22.34793945 16.00080078 22.34793945 16.51171875 23.40429688 C19 28.66015625 19 28.66015625 19 32 C19.66 32 20.32 32 21 32 C23.15294651 37.28830549 25.27933894 42.55123997 27 48 C26.34 48 25.68 48 25 48 C24.67 48.66 24.34 49.32 24 50 C23.25169922 48.26943359 23.25169922 48.26943359 22.48828125 46.50390625 C17.53430099 35.20318971 12.11928713 24.22045611 6.34301758 13.31665039 C5.80829834 12.30594482 5.2735791 11.29523926 4.72265625 10.25390625 C4.24578369 9.36002197 3.76891113 8.4661377 3.27758789 7.54516602 C2.03633265 5.07238064 0.98717963 2.58339595 0 0 Z " fill="#FEDC49" transform="translate(946,1107)"/>
<path d="M0 0 C-0.68707031 0.26554687 -1.37414063 0.53109375 -2.08203125 0.8046875 C-3.43361328 1.33449219 -3.43361328 1.33449219 -4.8125 1.875 C-5.70582031 2.22304687 -6.59914063 2.57109375 -7.51953125 2.9296875 C-10.17711591 3.98832155 -10.17711591 3.98832155 -13 6 C-15.58251335 6.75370709 -18.13740154 7.43557172 -20.75 8.0625 C-21.4409375 8.23587891 -22.131875 8.40925781 -22.84375 8.58789062 C-26.22103714 9.4163417 -29.50209825 10.07094867 -32.953125 10.55859375 C-35.87044086 10.67096759 -35.87044086 10.67096759 -37 12 C-38.33802186 12.22513101 -39.68573023 12.39360807 -41.03515625 12.53515625 C-41.84404297 12.62216797 -42.65292969 12.70917969 -43.48632812 12.79882812 C-44.7615332 12.9293457 -44.7615332 12.9293457 -46.0625 13.0625 C-46.91650391 13.15337891 -47.77050781 13.24425781 -48.65039062 13.33789062 C-50.76651535 13.56250722 -52.88320894 13.78175227 -55 14 C-55.33 13.34 -55.66 12.68 -56 12 C-55.34 12 -54.68 12 -54 12 C-54 11.34 -54 10.68 -54 10 C-53.08347656 9.85304688 -53.08347656 9.85304688 -52.1484375 9.703125 C-28.77731985 6.70519698 -28.77731985 6.70519698 -6.47265625 -0.1484375 C-3.77384712 -1.07788519 -2.63085849 -0.97439203 0 0 Z " fill="#833FFE" transform="translate(1120,1205)"/>
<path d="M0 0 C3.58331625 -0.02907084 7.16660208 -0.04682263 10.75 -0.0625 C11.76578125 -0.07087891 12.7815625 -0.07925781 13.828125 -0.08789062 C14.8078125 -0.09111328 15.7875 -0.09433594 16.796875 -0.09765625 C17.69760742 -0.10289307 18.59833984 -0.10812988 19.52636719 -0.11352539 C21.8481386 -0.00696956 23.7688934 0.38940579 26 1 C28.24707241 1.2198223 30.49771238 1.40483987 32.75 1.5625 C33.92046875 1.64628906 35.0909375 1.73007812 36.296875 1.81640625 C37.18890625 1.87699219 38.0809375 1.93757812 39 2 C39.495 3.485 39.495 3.485 40 5 C40.68964844 5.04898438 41.37929687 5.09796875 42.08984375 5.1484375 C48.23409469 5.63728051 54.0149077 6.52825599 60 8 C60 8.33 60 8.66 60 9 C58.37443587 8.88256381 56.74956712 8.75550539 55.125 8.625 C54.22007813 8.55539062 53.31515625 8.48578125 52.3828125 8.4140625 C49.76323236 8.09342105 47.37325463 7.64324953 44.8125 7.0625 C36.61018391 5.37030075 28.21123102 5.00085271 19.875 4.375 C18.13797783 4.24013602 16.40099814 4.10472388 14.6640625 3.96875 C10.44317156 3.6395095 6.22177464 3.31769952 2 3 C2 3.99 2 4.98 2 6 C1.01 6 0.02 6 -1 6 C-0.67 4.02 -0.34 2.04 0 0 Z " fill="#813BFD" transform="translate(1032,671)"/>
<path d="M0 0 C13.3413728 4.47712173 32.93851179 12.90776768 41 25 C40.67 25.66 40.34 26.32 40 27 C36.50219346 25.44270152 33.79529676 23.322896 30.8125 20.9375 C22.11955586 14.32144153 12.24933355 8.8309642 2 5 C2 4.34 2 3.68 2 3 C1.34 3 0.68 3 0 3 C0 2.01 0 1.02 0 0 Z " fill="#FE4FC1" transform="translate(1197,433)"/>
<path d="M0 0 C6.46481868 0.58393551 12.84377269 1.40119852 19.25 2.4375 C30.12138296 4.14099008 41.03499713 5.12399504 52 6 C52 6.33 52 6.66 52 7 C48.7 7 45.4 7 42 7 C42 7.66 42 8.32 42 9 C34.16251078 8.59807748 26.55515218 8.09066879 18.8515625 6.54296875 C13.26978846 5.4801378 7.62810772 4.77232427 2 4 C2 3.01 2 2.02 2 1 C1.34 0.67 0.68 0.34 0 0 Z " fill="#FE8F3C" transform="translate(927,1015)"/>
<path d="M0 0 C0.99 0 1.98 0 3 0 C2.71384056 13.7876823 -0.3450439 28.03107579 -5 41 C-5.66 41 -6.32 41 -7 41 C-7.66 41.99 -8.32 42.98 -9 44 C-7.52173913 25.52173913 -7.52173913 25.52173913 -3 21 C-3.0103125 19.97777344 -3.020625 18.95554687 -3.03125 17.90234375 C-2.99915867 13.89493857 -2.39136266 10.46221163 -1.5 6.5625 C-1.2215625 5.32628906 -0.943125 4.09007812 -0.65625 2.81640625 C-0.4396875 1.88699219 -0.223125 0.95757813 0 0 Z " fill="#893FFE" transform="translate(1302,983)"/>
<path d="M0 0 C0.99 0.33 1.98 0.66 3 1 C1.86280581 4.41158256 0.95657056 5.11854601 -2 7 C-2.66 7 -3.32 7 -4 7 C-4.33 7.99 -4.66 8.98 -5 10 C-6.6015625 11.54296875 -6.6015625 11.54296875 -8.625 13.1875 C-14.78285774 18.41836841 -19.61228137 24.24966365 -24 31 C-24.33 31 -24.66 31 -25 31 C-25.2295711 27.63295715 -25.33943529 25.58629732 -23.625 22.625 C-23.08875 22.08875 -22.5525 21.5525 -22 21 C-21.34 21 -20.68 21 -20 21 C-19.7525 20.443125 -19.505 19.88625 -19.25 19.3125 C-16.01430808 13.32646994 -11.1083262 9.33075824 -6 5 C-5.42378906 4.4740625 -4.84757812 3.948125 -4.25390625 3.40625 C-2.6875 2 -2.6875 2 0 0 Z " fill="#FE50BC" transform="translate(1081,450)"/>
<path d="M0 0 C0.65758301 0.31614258 1.31516602 0.63228516 1.99267578 0.95800781 C3.28830906 1.58229368 4.58247728 2.20963127 5.875 2.84033203 C7.35554761 3.55705918 8.84842291 4.2482355 10.34375 4.93359375 C12.14361681 5.77157522 13.89274407 6.71743668 15.625 7.6875 C16.12 9.1725 16.12 9.1725 16.625 10.6875 C17.285 11.3475 17.945 12.0075 18.625 12.6875 C13.97076512 12.07886928 10.21911368 10.09758452 6.125 7.9375 C-0.12966422 4.7048498 -6.34588577 2.02900512 -12.99609375 -0.3046875 C-15.375 -1.3125 -15.375 -1.3125 -16.375 -3.3125 C-10.39247855 -5.30667382 -5.39518419 -2.63923238 0 0 Z " fill="#FEDA47" transform="translate(815.375,989.3125)"/>
<path d="M0 0 C2.375 0.25 2.375 0.25 5 1 C6.0625 2.9375 6.0625 2.9375 7 5 C9.0335948 6.26804566 9.0335948 6.26804566 11 7 C11 7.66 11 8.32 11 9 C11.99 9.33 12.98 9.66 14 10 C14.70151152 11.3153341 15.36525925 12.65117592 16 14 C16.97850195 15.02104551 17.97980427 16.0206121 19 17 C21.59130191 20.00325247 22.52101029 22.35359862 23.1875 26.25 C23.34605469 27.14203125 23.50460937 28.0340625 23.66796875 28.953125 C23.77753906 29.62859375 23.88710937 30.3040625 24 31 C21.30075724 28.55355641 19.57350449 25.85432003 17.6875 22.75 C15.50653957 19.24654229 13.30377832 16.02306209 10.5625 12.9375 C8 10 8 10 8 8 C7.01 7.67 6.02 7.34 5 7 C2.3125 4.5625 2.3125 4.5625 0 2 C0 1.34 0 0.68 0 0 Z " fill="#FE51C3" transform="translate(1238,461)"/>
<path d="M0 0 C0.99 0 1.98 0 3 0 C1.8905928 3.48670834 0.73662334 6.77484237 -1 10 C-1.66 10 -2.32 10 -3 10 C-3.11472656 10.57234375 -3.22945312 11.1446875 -3.34765625 11.734375 C-4.06182356 14.21471656 -5.07307872 16.06368697 -6.4375 18.25 C-6.86933594 18.95640625 -7.30117187 19.6628125 -7.74609375 20.390625 C-8.15988281 20.92171875 -8.57367187 21.4528125 -9 22 C-9.66 22 -10.32 22 -11 22 C-11.103125 22.598125 -11.20625 23.19625 -11.3125 23.8125 C-12.08876455 26.28243264 -13.07088921 27.32251235 -15 29 C-15.66 28.67 -16.32 28.34 -17 28 C-15.59697804 25.08215986 -14.02347533 22.35936659 -12.28515625 19.62890625 C-11.76373047 18.80712891 -11.24230469 17.98535156 -10.70507812 17.13867188 C-10.16302734 16.28853516 -9.62097656 15.43839844 -9.0625 14.5625 C-7.99037273 12.87662802 -6.91874338 11.19043926 -5.84765625 9.50390625 C-5.34637207 8.72031738 -4.84508789 7.93672852 -4.32861328 7.12939453 C-3.26342187 5.42219139 -2.27294707 3.66846888 -1.30859375 1.90234375 C-0.87675781 1.27457031 -0.44492188 0.64679688 0 0 Z " fill="#893DFE" transform="translate(1269,1080)"/>
<path d="M0 0 C0.33 0 0.66 0 1 0 C0.26929926 12.09502022 0.26929926 12.09502022 -0.9375 18.0625 C-2.63311477 26.60431875 -3.20817915 35.33707255 -4 44 C-4.33 44 -4.66 44 -5 44 C-5 39.71 -5 35.42 -5 31 C-5.66 30.67 -6.32 30.34 -7 30 C-5.92373883 22.59211729 -4.72864339 15.28499714 -3 8 C-2.34 8 -1.68 8 -1 8 C-0.67 5.36 -0.34 2.72 0 0 Z " fill="#FE8A38" transform="translate(700,664)"/>
<path d="M0 0 C3.40053502 1.58691634 6.5779386 3.40981682 9.8125 5.3125 C9.8125 5.9725 9.8125 6.6325 9.8125 7.3125 C10.39644531 7.42980469 10.98039063 7.54710937 11.58203125 7.66796875 C13.93466216 8.3478008 15.50118291 9.22452729 17.5 10.625 C18.10199219 11.03363281 18.70398438 11.44226563 19.32421875 11.86328125 C21.11169704 13.6038441 21.42401053 14.88314587 21.8125 17.3125 C20.4925 16.9825 19.1725 16.6525 17.8125 16.3125 C17.8125 15.6525 17.8125 14.9925 17.8125 14.3125 C17.13445313 14.07402344 16.45640625 13.83554687 15.7578125 13.58984375 C12.14329645 12.02227512 8.98141772 10.02124744 5.6875 7.875 C5.06746094 7.47990234 4.44742188 7.08480469 3.80859375 6.67773438 C0.87015817 4.77880988 -1.86475736 2.94889767 -4.1875 0.3125 C-2.1875 -0.6875 -2.1875 -0.6875 0 0 Z " fill="#FEDB49" transform="translate(847.1875,1006.6875)"/>
<path d="M0 0 C1.8359375 0.171875 1.8359375 0.171875 4 1 C5.4140625 3.328125 5.4140625 3.328125 6.625 6.25 C7.02976562 7.20390625 7.43453125 8.1578125 7.8515625 9.140625 C8.23054688 10.08421875 8.60953125 11.0278125 9 12 C9.37898438 12.86109375 9.75796875 13.7221875 10.1484375 14.609375 C11 17 11 17 11 21 C11.66 21 12.32 21 13 21 C13.33 22.32 13.66 23.64 14 25 C13.01 25 12.02 25 11 25 C11 24.34 11 23.68 11 23 C10.34 23 9.68 23 9 23 C8.67 21.02 8.34 19.04 8 17 C7.34 17 6.68 17 6 17 C5.49384702 15.73160474 4.99530901 14.46016898 4.5 13.1875 C4.2215625 12.47980469 3.943125 11.77210938 3.65625 11.04296875 C3 9 3 9 3 6 C2.34 6 1.68 6 1 6 C0.67 4.02 0.34 2.04 0 0 Z " fill="#8E40FE" transform="translate(1277,825)"/>
<path d="M0 0 C3.0560062 2.89946245 5.50683339 5.93837434 7.9375 9.375 C10.81860265 13.39777323 13.7642652 17.25868164 17 21 C15.68 21.33 14.36 21.66 13 22 C7.21629117 15.36277298 1.83947578 9.00227583 -2 1 C-1.34 0.67 -0.68 0.34 0 0 Z " fill="#FE51BB" transform="translate(1051,613)"/>
<path d="M0 0 C0.66 0.33 1.32 0.66 2 1 C1.3503125 1.5878125 1.3503125 1.5878125 0.6875 2.1875 C-1.09734639 3.95785515 -1.09734639 3.95785515 -2.265625 6.2890625 C-4.30137121 9.47106221 -6.62790538 11.66763291 -9.4375 14.1875 C-10.85869141 15.47720703 -10.85869141 15.47720703 -12.30859375 16.79296875 C-14.5277202 18.61271685 -16.37988212 19.89125035 -19 21 C-19 17 -19 17 -16.3671875 14.16015625 C-15.21312085 13.1164439 -14.04855115 12.08425486 -12.875 11.0625 C-12.30523438 10.55009766 -11.73546875 10.03769531 -11.1484375 9.50976562 C-7.50504887 6.25141693 -3.76962988 3.11080399 0 0 Z " fill="#7D3BFE" transform="translate(1224,1139)"/>
<path d="M0 0 C-5.80122351 3.07123597 -11.69434935 5.48035902 -17.8515625 7.75390625 C-21.07277857 8.96477467 -21.07277857 8.96477467 -24.2734375 10.71484375 C-25.17320312 11.13894531 -26.07296875 11.56304687 -27 12 C-27.66 11.67 -28.32 11.34 -29 11 C-27.80194275 7.40582825 -26.4952657 6.9111833 -23.22851562 5.24804688 C-22.59623047 4.93931641 -21.96394531 4.63058594 -21.3125 4.3125 C-20.69955078 3.99216797 -20.08660156 3.67183594 -19.45507812 3.34179688 C-15.42903876 1.33945068 -12.45469801 0.76892056 -8 1 C-2.96808511 -0.9893617 -2.96808511 -0.9893617 0 0 Z " fill="#FE8B37" transform="translate(883,450)"/>
<path d="M0 0 C0.66 0.99 1.32 1.98 2 3 C1.04956626 4.33897583 0.08940853 5.67105427 -0.875 7 C-1.40867187 7.7425 -1.94234375 8.485 -2.4921875 9.25 C-2.98976563 9.8275 -3.48734375 10.405 -4 11 C-4.66 11 -5.32 11 -6 11 C-6.433125 11.8971875 -6.433125 11.8971875 -6.875 12.8125 C-8 15 -8 15 -10 18 C-11.9375 18.5625 -11.9375 18.5625 -14 19 C-14.99 19.66 -15.98 20.32 -17 21 C-15.48771554 17.40321534 -13.36327453 15.18580021 -10.5625 12.5 C-8.28800867 10.31169203 -6.19811229 8.27222959 -4.33984375 5.71875 C-3.89769531 5.1515625 -3.45554687 4.584375 -3 4 C-2.34 4 -1.68 4 -1 4 C-0.67 2.68 -0.34 1.36 0 0 Z " fill="#8641FE" transform="translate(1247,1113)"/>
<path d="M0 0 C0.33 0 0.66 0 1 0 C1.28837189 5.63744028 1.57305734 11.27505094 1.85449219 16.9128418 C1.95051163 18.82630298 2.04749641 20.73971599 2.14550781 22.65307617 C3.18928963 43.0547504 3.18928963 43.0547504 3 52 C2.67 52 2.34 52 2 52 C2 49.69 2 47.38 2 45 C1.01 45 0.02 45 -1 45 C-1 44.34 -1 43.68 -1 43 C-0.34 43 0.32 43 1 43 C0.9285376 42.24501221 0.8570752 41.49002441 0.78344727 40.7121582 C0.01558481 31.85659167 -0.1195639 23.07116484 -0.0625 14.1875 C-0.05746684 12.80143394 -0.0529072 11.41536607 -0.04882812 10.02929688 C-0.03717953 6.68615025 -0.02082429 3.34309989 0 0 Z " fill="#FD822E" transform="translate(694,711)"/>
<path d="M0 0 C3.18706942 1.43561686 5.62169105 3.20266329 8.25 5.5 C8.95640625 6.1084375 9.6628125 6.716875 10.390625 7.34375 C12 9 12 9 12 11 C12.61875 11.268125 13.2375 11.53625 13.875 11.8125 C16 13 16 13 18 16 C10.15343182 14.03835796 4.42274835 8.76167012 -1 3 C-0.67 2.01 -0.34 1.02 0 0 Z " fill="#FE8D3B" transform="translate(784,938)"/>
<path d="M0 0 C3.33161951 3.33161951 3.92489916 7.91876176 5.1875 12.375 C5.47302734 13.3340625 5.75855469 14.293125 6.05273438 15.28125 C6.31763672 16.20679688 6.58253906 17.13234375 6.85546875 18.0859375 C7.22128052 19.3551001 7.22128052 19.3551001 7.59448242 20.64990234 C8.02318347 23.13435525 7.79905971 24.63319948 7 27 C7 26.34 7 25.68 7 25 C6.01 25 5.02 25 4 25 C1.61005524 16.65773999 0.4053172 8.66540227 0 0 Z " fill="#FE893B" transform="translate(702,793)"/>
<path d="M0 0 C-0.66 0 -1.32 0 -2 0 C-1.67 0.99 -1.34 1.98 -1 3 C-8.2644803 6.44171655 -13.91669061 8.67360912 -22 8 C-19.63844464 5.23074942 -17.68205022 4.40181941 -14.1875 3.5 C-11.01503597 2.63057837 -8.52336573 1.75734983 -5.5625 0.25 C-3 -1 -3 -1 0 0 Z " fill="#8936FE" transform="translate(1143,1196)"/>
<path d="M0 0 C0.556875 0.45375 1.11375 0.9075 1.6875 1.375 C3.88987131 3.06966353 3.88987131 3.06966353 6.28125 3.84375 C9.50373431 5.21423183 12.00961745 7.03128051 14.8125 9.125 C15.78832031 9.84945312 16.76414062 10.57390625 17.76953125 11.3203125 C18.50558594 11.87460937 19.24164062 12.42890625 20 13 C18.02 13.99 18.02 13.99 16 15 C15.01 14.34 14.02 13.68 13 13 C13 12.34 13 11.68 13 11 C11.02 10.34 9.04 9.68 7 9 C7 8.34 7 7.68 7 7 C6.21625 6.773125 5.4325 6.54625 4.625 6.3125 C2 5 2 5 0.6875 2.375 C0.460625 1.59125 0.23375 0.8075 0 0 Z " fill="#FE8733" transform="translate(806,958)"/>
<path d="M0 0 C12.02042828 0.7794817 24.0073032 1.88087711 36 3 C36 3.33 36 3.66 36 4 C32.7 4 29.4 4 26 4 C26 4.66 26 5.32 26 6 C24.20759337 5.88610125 22.41605165 5.75852313 20.625 5.625 C19.12839844 5.52058594 19.12839844 5.52058594 17.6015625 5.4140625 C15 5 15 5 13 3 C10.80708918 2.54337847 8.59414111 2.179588 6.375 1.875 C5.18648437 1.70742188 3.99796875 1.53984375 2.7734375 1.3671875 C1.85820313 1.24601563 0.94296875 1.12484375 0 1 C0 0.67 0 0.34 0 0 Z " fill="#FE832F" transform="translate(943,1018)"/>
<path d="M0 0 C2.1519437 3.22791555 2.20086443 4.28400809 2 8 C2.99 7.67 3.98 7.34 5 7 C5.19620767 9.06168985 5.38160753 11.12440998 5.5625 13.1875 C5.66691406 14.33605469 5.77132813 15.48460937 5.87890625 16.66796875 C5.98859985 19.68631199 5.74002389 22.08923936 5 25 C2.77180871 21.27020153 2.12817862 17.27799461 1.375 13.0625 C1.2409375 12.35931641 1.106875 11.65613281 0.96875 10.93164062 C0.2917031 7.24588019 -0.16137372 3.74827151 0 0 Z " fill="#8139FE" transform="translate(1298,884)"/>
<path d="M0 0 C1.1640625 1.6640625 1.1640625 1.6640625 2 4 C1.0234375 6.5859375 1.0234375 6.5859375 -0.625 9.375 C-1.18703125 10.33792969 -1.7490625 11.30085937 -2.328125 12.29296875 C-4.15426536 15.24978013 -6.00198123 18.15666559 -8 21 C-9.62149622 17.75700756 -8.1418394 15.09348677 -7.1015625 11.75390625 C-5.36198849 7.40497121 -2.79007432 3.73815782 0 0 Z " fill="#FE893F" transform="translate(737,567)"/>
<path d="M0 0 C0.99 0.33 1.98 0.66 3 1 C3 1.66 3 2.32 3 3 C4.3303125 3.37125 4.3303125 3.37125 5.6875 3.75 C9.17160823 5.06475782 11.33669024 6.41278481 14 9 C14.8125 11.25 14.8125 11.25 15 13 C11.66666667 11.33333333 8.33333333 9.66666667 5 8 C5 7.34 5 6.68 5 6 C4.401875 5.896875 3.80375 5.79375 3.1875 5.6875 C0.71756736 4.91123545 -0.32251235 3.92911079 -2 2 C-1.34 2 -0.68 2 0 2 C0 1.34 0 0.68 0 0 Z " fill="#8B3CFE" transform="translate(1173,709)"/>
<path d="M0 0 C5.49576188 4.30748904 6.67083745 9.28935006 8 16 C8 16.66 8 17.32 8 18 C7.01 18 6.02 18 5 18 C4.16112944 15.56427941 3.32873471 13.12666783 2.5 10.6875 C2.14228516 9.65206055 2.14228516 9.65206055 1.77734375 8.59570312 C0.76791737 5.61068511 0 3.17341086 0 0 Z " fill="#813FFE" transform="translate(1289,853)"/>
<path d="M0 0 C1.32 0.33 2.64 0.66 4 1 C-0.64831461 11.83033708 -0.64831461 11.83033708 -3 15 C-3.99 15 -4.98 15 -6 15 C-4.36041242 9.76727367 -2.61047965 4.84803364 0 0 Z " fill="#8744FE" transform="translate(1283,1052)"/>
<path d="M0 0 C1 3 1 3 0.0390625 5.33984375 C-0.42757812 6.19707031 -0.89421875 7.05429687 -1.375 7.9375 C-3.00590926 10.95787107 -4.32626928 13.62351233 -5 17 C-5.66 17 -6.32 17 -7 17 C-8.47703467 13.18432711 -7.76025692 10.91068927 -6.1875 7.3125 C-4.96371055 4.6837826 -4.06573436 3.06573436 -2 1 C-1.34 1.33 -0.68 1.66 0 2 C0 1.34 0 0.68 0 0 Z " fill="#FE903D" transform="translate(726,590)"/>
<path d="M0 0 C0.33 0 0.66 0 1 0 C1.67396301 3.56115958 2.33787818 7.12412141 3 10.6875 C3.19078125 11.69490234 3.3815625 12.70230469 3.578125 13.74023438 C3.75859375 14.71669922 3.9390625 15.69316406 4.125 16.69921875 C4.29257812 17.59471436 4.46015625 18.49020996 4.6328125 19.4128418 C4.99717982 21.98012932 5.06528807 24.41092013 5 27 C3.20724134 23.88089144 2.65709282 21.32317572 2.375 17.75 C2.30023437 16.85796875 2.22546875 15.9659375 2.1484375 15.046875 C2.09945312 14.37140625 2.05046875 13.6959375 2 13 C1.01 13 0.02 13 -1 13 C-1.33 10.03 -1.66 7.06 -2 4 C-1.34 4 -0.68 4 0 4 C0 2.68 0 1.36 0 0 Z " fill="#FE8834" transform="translate(697,764)"/>
<path d="M0 0 C3.27081471 -0.02902429 6.5415963 -0.04680684 9.8125 -0.0625 C10.74126953 -0.07087891 11.67003906 -0.07925781 12.62695312 -0.08789062 C13.51962891 -0.09111328 14.41230469 -0.09433594 15.33203125 -0.09765625 C16.56530151 -0.10551147 16.56530151 -0.10551147 17.82348633 -0.11352539 C20 0 20 0 23 1 C23 1.66 23 2.32 23 3 C11.615 2.505 11.615 2.505 0 2 C0 1.34 0 0.68 0 0 Z " fill="#9958F8" transform="translate(1034,671)"/>
<path d="M0 0 C2.29158942 2.89818662 4.07862366 5.83140544 5.75 9.125 C6.19859375 9.99382813 6.6471875 10.86265625 7.109375 11.7578125 C7.40328125 12.49773438 7.6971875 13.23765625 8 14 C7.67 14.66 7.34 15.32 7 16 C6.01 16 5.02 16 4 16 C2.74335022 13.09399739 2 11.20395416 2 8 C1.34 8 0.68 8 0 8 C-0.66 6.02 -1.32 4.04 -2 2 C-1.34 2 -0.68 2 0 2 C0 1.34 0 0.68 0 0 Z " fill="#FE50C1" transform="translate(1042,595)"/>
<path d="M0 0 C0.66 0 1.32 0 2 0 C2.89366574 3.95435976 3.76174113 7.91390071 4.625 11.875 C5.00785156 13.56689453 5.00785156 13.56689453 5.3984375 15.29296875 C5.63046875 16.36933594 5.8625 17.44570313 6.1015625 18.5546875 C6.32150879 19.54968262 6.54145508 20.54467773 6.76806641 21.56982422 C6.84460449 22.37178223 6.92114258 23.17374023 7 24 C6.34 24.66 5.68 25.32 5 26 C1.94992182 14.31762509 1.94992182 14.31762509 1.375 9.8125 C1.30323831 7.10075495 1.30323831 7.10075495 0 6 C-0.04080783 4.00041636 -0.04254356 1.99954746 0 0 Z " fill="#FF9843" transform="translate(697,777)"/>
<path d="M0 0 C0.66 0.268125 1.32 0.53625 2 0.8125 C-2.52874388 4.73741136 -7.60598991 8.18709686 -13 10.8125 C-13.66 10.4825 -14.32 10.1525 -15 9.8125 C-14.01 9.1525 -13.02 8.4925 -12 7.8125 C-11.67 6.8225 -11.34 5.8325 -11 4.8125 C-7.62973831 1.94620267 -4.48965365 -0.28060335 0 0 Z " fill="#FE893B" transform="translate(850,462.1875)"/>
<path d="M0 0 C2.00720923 0.28674418 4.0085944 0.61866701 6 1 C6 1.99 6 2.98 6 4 C-3.57 3.67 -13.14 3.34 -23 3 C-23 2.67 -23 2.34 -23 2 C-22.00818726 1.96241577 -22.00818726 1.96241577 -20.99633789 1.92407227 C-18.01817695 1.80846898 -15.0403608 1.68558246 -12.0625 1.5625 C-10.50112305 1.50352539 -10.50112305 1.50352539 -8.90820312 1.44335938 C-7.42416992 1.38051758 -7.42416992 1.38051758 -5.91015625 1.31640625 C-4.53549194 1.26141968 -4.53549194 1.26141968 -3.13305664 1.20532227 C-1.0179272 1.22996136 -1.0179272 1.22996136 0 0 Z " fill="#FE48BD" transform="translate(1167,426)"/>
<path d="M0 0 C4.29 1.65 8.58 3.3 13 5 C12.67 6.32 12.34 7.64 12 9 C7.05 7.02 7.05 7.02 2 5 C2 4.34 2 3.68 2 3 C1.34 3 0.68 3 0 3 C0 2.01 0 1.02 0 0 Z " fill="#FE48C2" transform="translate(1197,433)"/>
<path d="M0 0 C1.24337885 3.73013654 0.55180675 4.94202519 -0.8125 8.5625 C-1.16957031 9.53316406 -1.52664063 10.50382813 -1.89453125 11.50390625 C-3 14 -3 14 -5 16 C-6.48147714 11.69024832 -5.53766889 8.94062147 -3.984375 4.8671875 C-2.91605795 2.84077659 -1.69105409 1.52954892 0 0 Z " fill="#FE8F38" transform="translate(714,617)"/>
<path d="M0 0 C0.33 0 0.66 0 1 0 C1 1.65 1 3.3 1 5 C1.99 4.67 2.98 4.34 4 4 C5.89470816 3.9314505 7.7916834 3.91519628 9.6875 3.9375 C10.68136719 3.94652344 11.67523437 3.95554687 12.69921875 3.96484375 C13.83810547 3.98224609 13.83810547 3.98224609 15 4 C15 4.66 15 5.32 15 6 C11.88370851 7.03876383 9.6405571 7.13361625 6.375 7.125 C5.39273437 7.12757812 4.41046875 7.13015625 3.3984375 7.1328125 C1 7 1 7 0 6 C-0.04080783 4.00041636 -0.04254356 1.99954746 0 0 Z " fill="#8B56FB" transform="translate(1032,1214)"/>
<path d="M0 0 C6.88940671 0.43632909 13.35751464 1.08389845 20 3 C19.67 3.66 19.34 4.32 19 5 C16.77058595 4.68926976 14.54147788 4.37634375 12.3125 4.0625 C11.07113281 3.88847656 9.82976562 3.71445312 8.55078125 3.53515625 C5.67525452 3.10177103 2.84355187 2.60350718 0 2 C0 1.34 0 0.68 0 0 Z " fill="#9842FD" transform="translate(1072,674)"/>
<path d="M0 0 C1.19908285 3.46848797 0.78945844 5.59994812 -0.3125 9.0625 C-0.57675781 9.91972656 -0.84101562 10.77695312 -1.11328125 11.66015625 C-2 14 -2 14 -4 17 C-4.66 16.67 -5.32 16.34 -6 16 C-5.55170486 14.01853549 -5.09107502 12.03985789 -4.625 10.0625 C-4.24214844 8.40927734 -4.24214844 8.40927734 -3.8515625 6.72265625 C-3.57054687 5.82417969 -3.28953125 4.92570313 -3 4 C-2.34 3.67 -1.68 3.34 -1 3 C-0.67 2.01 -0.34 1.02 0 0 Z " fill="#FE9437" transform="translate(705,644)"/>
<path d="M0 0 C-1.89385437 0.50744423 -3.79018666 1.00564574 -5.6875 1.5 C-6.74324219 1.7784375 -7.79898437 2.056875 -8.88671875 2.34375 C-11.71142672 2.9391715 -14.12836708 3.12786492 -17 3 C-17 3.99 -17 4.98 -17 6 C-17.99 6 -18.98 6 -20 6 C-20 5.34 -20 4.68 -20 4 C-21.32 3.67 -22.64 3.34 -24 3 C-19.07593142 1.8698859 -14.14393674 0.79179597 -9.1875 -0.1875 C-8.29417969 -0.36667969 -7.40085937 -0.54585937 -6.48046875 -0.73046875 C-3.99414361 -1.00063636 -2.3569234 -0.77465314 0 0 Z " fill="#7430FE" transform="translate(1100,1211)"/>
<path d="M0 0 C2.64 0.66 5.28 1.32 8 2 C8 2.99 8 3.98 8 5 C2.43109483 4.52013969 -2.67067568 3.70084819 -8 2 C-8 1.67 -8 1.34 -8 1 C-5.36 1.33 -2.72 1.66 0 2 C0 1.34 0 0.68 0 0 Z " fill="#FE4EBE" transform="translate(1183,429)"/>
<path d="M0 0 C0.33 0.66 0.66 1.32 1 2 C1.66 2 2.32 2 3 2 C4.32 4.64 5.64 7.28 7 10 C6.01 11.485 6.01 11.485 5 13 C2.69 9.7 0.38 6.4 -2 3 C-1 1 -1 1 0 0 Z " fill="#FEDB43" transform="translate(938,1091)"/>
<path d="M0 0 C0.99 0.33 1.98 0.66 3 1 C3 1.66 3 2.32 3 3 C3.68964844 3.04898438 4.37929687 3.09796875 5.08984375 3.1484375 C11.23409469 3.63728051 17.0149077 4.52825599 23 6 C23 6.33 23 6.66 23 7 C13.21775739 6.37514309 3.64205883 4.68656475 -6 3 C-6 2.67 -6 2.34 -6 2 C-4.02 2 -2.04 2 0 2 C0 1.34 0 0.68 0 0 Z " fill="#7E2FFD" transform="translate(1069,673)"/>
<path d="M0 0 C2 3 2 3 2 6 C2.99 5.67 3.98 5.34 5 5 C4.79375 5.639375 4.5875 6.27875 4.375 6.9375 C3.92661078 10.59934533 4.64855582 13.29510442 5.625 16.81640625 C6.0392621 19.22861991 5.65365162 20.67289049 5 23 C4.15854044 19.91882573 3.32826938 16.83474379 2.5 13.75 C2.26152344 12.87730469 2.02304687 12.00460937 1.77734375 11.10546875 C1.55175781 10.26113281 1.32617188 9.41679688 1.09375 8.546875 C0.88427734 7.77182617 0.67480469 6.99677734 0.45898438 6.19824219 C0 4 0 4 0 0 Z " fill="#FEDA40" transform="translate(979,1182)"/>
<path d="M0 0 C0 0.66 0 1.32 0 2 C-6.6 3.32 -13.2 4.64 -20 6 C-20.33 5.34 -20.66 4.68 -21 4 C-18.25124318 3.32781493 -15.50119274 2.66207565 -12.75 2 C-11.97269531 1.80921875 -11.19539063 1.6184375 -10.39453125 1.421875 C-9.64042969 1.24140625 -8.88632813 1.0609375 -8.109375 0.875 C-7.41811523 0.70742187 -6.72685547 0.53984375 -6.01464844 0.3671875 C-4 0 -4 0 0 0 Z " fill="#8B4CFE" transform="translate(1104,1210)"/>
<path d="M0 0 C2.91589609 4.37384413 4.30254716 7.70542471 4 13 C3.01 13.33 2.02 13.66 1 14 C0.34 11.36 -0.32 8.72 -1 6 C-0.34 6 0.32 6 1 6 C0.67 4.02 0.34 2.04 0 0 Z " fill="#FE52C2" transform="translate(1037,579)"/>
<path d="M0 0 C1.16144531 0.00902344 2.32289063 0.01804687 3.51953125 0.02734375 C4.39996094 0.03894531 5.28039062 0.05054688 6.1875 0.0625 C0.1406133 3.29626984 -6.11075993 3.18007439 -12.8125 3.0625 C-12.4825 2.4025 -12.1525 1.7425 -11.8125 1.0625 C-7.88476248 -0.07920067 -4.06671021 -0.04107788 0 0 Z " fill="#FE914C" transform="translate(957.8125,427.9375)"/>
<path d="M0 0 C2.49398774 2.49398774 3.10613333 4.83552462 4.21875 8.125 C4.94192432 10.19575753 4.94192432 10.19575753 7 12 C7 12.99 7 13.98 7 15 C6.34 15 5.68 15 5 15 C4.67 15.66 4.34 16.32 4 17 C3.32635339 14.91891315 2.66133202 12.8350329 2 10.75 C1.62875 9.58984375 1.2575 8.4296875 0.875 7.234375 C0 4 0 4 0 0 Z " fill="#FE47BC" transform="translate(1270,510)"/>
<path d="M0 0 C0.66 0 1.32 0 2 0 C3.5078125 1.75 3.5078125 1.75 5.125 4 C5.66382813 4.7425 6.20265625 5.485 6.7578125 6.25 C7.16773438 6.8275 7.57765625 7.405 8 8 C7.67 8.66 7.34 9.32 7 10 C5.125 9.75 5.125 9.75 3 9 C1.875 7 1.875 7 1 5 C0.34 4.67 -0.32 4.34 -1 4 C-0.67 2.68 -0.34 1.36 0 0 Z " fill="#FE8D37" transform="translate(754,904)"/>
<path d="M0 0 C0.99 0 1.98 0 3 0 C3.99 2.97 4.98 5.94 6 9 C5.01 9.99 4.02 10.98 3 12 C2.49440092 10.56445975 1.9957251 9.1264798 1.5 7.6875 C1.2215625 6.88699219 0.943125 6.08648438 0.65625 5.26171875 C0 3 0 3 0 0 Z " fill="#FED948" transform="translate(975,1169)"/>
<path d="M0 0 C1.65 1.32 3.3 2.64 5 4 C5.66 3.67 6.32 3.34 7 3 C9.83374881 6.20336822 10.5205537 8.78087253 11 13 C9.83593677 11.83593677 8.67245135 10.67129061 7.51171875 9.50390625 C6.46205398 8.4596661 5.40128152 7.42652024 4.33203125 6.40234375 C2.85185191 4.97138652 1.42232322 3.48847779 0 2 C0 1.34 0 0.68 0 0 Z " fill="#7F36FE" transform="translate(1234,762)"/>
<path d="M0 0 C0.33 0.66 0.66 1.32 1 2 C1.99 2.33 2.98 2.66 4 3 C2.73392393 3.53229326 1.46189588 4.05044544 0.1875 4.5625 C-0.52019531 4.85253906 -1.22789062 5.14257812 -1.95703125 5.44140625 C-4 6 -4 6 -7 5 C-6.67 4.01 -6.34 3.02 -6 2 C-2.9375 0.8125 -2.9375 0.8125 0 0 Z " fill="#FE9236" transform="translate(895,441)"/>
<path d="M0 0 C1.875 0.125 1.875 0.125 4 1 C5.375 3.8125 5.375 3.8125 6 7 C5.125 9.375 5.125 9.375 4 11 C3.67 9.35 3.34 7.7 3 6 C2.34 6 1.68 6 1 6 C0.67 4.02 0.34 2.04 0 0 Z " fill="#7F34FE" transform="translate(1277,825)"/>
<path d="M0 0 C0.33 0.99 0.66 1.98 1 3 C1.66 3.33 2.32 3.66 3 4 C2.34 5.98 1.68 7.96 1 10 C0.34 10 -0.32 10 -1 10 C-1.66 10.99 -2.32 11.98 -3 13 C-2.52060632 8.28596212 -2.03165952 4.33420699 0 0 Z " fill="#7C32FE" transform="translate(1296,1014)"/>
<path d="M0 0 C0.66 0 1.32 0 2 0 C2 0.66 2 1.32 2 2 C6.62 2 11.24 2 16 2 C16 2.33 16 2.66 16 3 C11.38 3 6.76 3 2 3 C2 3.99 2 4.98 2 6 C1.01 6 0.02 6 -1 6 C-0.67 4.02 -0.34 2.04 0 0 Z " fill="#9538F9" transform="translate(1032,671)"/>
<path d="M0 0 C0.66 0.66 1.32 1.32 2 2 C1.53846154 8.46153846 1.53846154 8.46153846 -1 11 C-1 10.34 -1 9.68 -1 9 C-1.66 8.67 -2.32 8.34 -3 8 C-2.01 5.36 -1.02 2.72 0 0 Z " fill="#FE9436" transform="translate(707,632)"/>
<path d="M0 0 C0.185625 0.639375 0.37125 1.27875 0.5625 1.9375 C1.94246056 4.42126213 1.94246056 4.42126213 5.625 4.75 C6.73875 4.8325 7.8525 4.915 9 5 C8.67 5.99 8.34 6.98 8 8 C5.125 8.125 5.125 8.125 2 8 C0 6 0 6 -0.125 2.875 C-0.08375 1.92625 -0.0425 0.9775 0 0 Z " fill="#FFE43E" transform="translate(693,1213)"/>
<path d="M0 0 C1.27230469 0.20367188 2.54460938 0.40734375 3.85546875 0.6171875 C4.83128906 0.78476562 5.80710937 0.95234375 6.8125 1.125 C6.1525 1.785 5.4925 2.445 4.8125 3.125 C1.6875 2.8125 1.6875 2.8125 -2.1875 2.125 C-3.66555871 1.92895731 -5.14475484 1.74128627 -6.625 1.5625 C-7.800625 1.418125 -8.97625 1.27375 -10.1875 1.125 C-6.25580336 -1.49613109 -4.58439982 -0.75705685 0 0 Z " fill="#FE9946" transform="translate(953.1875,1019.875)"/>
<path d="M0 0 C1.1055189 0.93590504 2.20935453 1.87379858 3.3125 2.8125 C3.92738281 3.33457031 4.54226563 3.85664062 5.17578125 4.39453125 C6.85424679 5.87172469 8.43882034 7.40039131 10 9 C9.67 9.66 9.34 10.32 9 11 C8.566875 10.505 8.13375 10.01 7.6875 9.5 C6.00259517 7.66781808 6.00259517 7.66781808 3 8 C1.92474806 5.34771188 0.90543849 2.71631546 0 0 Z " fill="#FE9132" transform="translate(769,922)"/>
<path d="M0 0 C3.96 0.33 7.92 0.66 12 1 C12 1.66 12 2.32 12 3 C13.32 3.66 14.64 4.32 16 5 C14 6 14 6 10.7421875 5.00390625 C9.4502948 4.53110016 8.16131362 4.05028031 6.875 3.5625 C6.21628906 3.31951172 5.55757812 3.07652344 4.87890625 2.82617188 C3.25008662 2.22421679 1.62470425 1.61297588 0 1 C0 0.67 0 0.34 0 0 Z " fill="#FD56CE" transform="translate(1106,664)"/>
<path d="M0 0 C4.29 1.32 8.58 2.64 13 4 C13 4.66 13 5.32 13 6 C9.37 5.67 5.74 5.34 2 5 C1.34 3.35 0.68 1.7 0 0 Z " fill="#9640FD" transform="translate(1105,680)"/>
<path d="M0 0 C2.83374881 3.20336822 3.5205537 5.78087253 4 10 C2.68 9.67 1.36 9.34 0 9 C-1.125 2.25 -1.125 2.25 0 0 Z " fill="#FE8A34" transform="translate(714,831)"/>
<path d="M0 0 C0.66 0 1.32 0 2 0 C2.69906942 1.59915881 3.38389468 3.20455045 4.0625 4.8125 C4.63677734 6.15248047 4.63677734 6.15248047 5.22265625 7.51953125 C6 10 6 10 5 13 C4.67 11.68 4.34 10.36 4 9 C3.34 9 2.68 9 2 9 C1.34 6.03 0.68 3.06 0 0 Z " fill="#FFA140" transform="translate(708,821)"/>
<path d="M0 0 C-2.05233685 2.2477975 -3.00667261 3.0022242 -6 4 C-6.515625 4.515625 -7.03125 5.03125 -7.5625 5.5625 C-8.2740625 6.2740625 -8.2740625 6.2740625 -9 7 C-9.66 7 -10.32 7 -11 7 C-9.91072362 3.73217086 -9.31652071 3.18062667 -6.625 1.25 C-6.01914063 0.80140625 -5.41328125 0.3528125 -4.7890625 -0.109375 C-3 -1 -3 -1 0 0 Z " fill="#9F41FF" transform="translate(1195,1168)"/>
<path d="M0 0 C1.65 0.33 3.3 0.66 5 1 C5 2.32 5 3.64 5 5 C2.03 4.01 -0.94 3.02 -4 2 C-3.34 1.67 -2.68 1.34 -2 1 C-1.34 1.33 -0.68 1.66 0 2 C0 1.34 0 0.68 0 0 Z " fill="#FEDE46" transform="translate(792,981)"/>
<path d="M0 0 C0.66 0.33 1.32 0.66 2 1 C2 1.99 2 2.98 2 4 C0.02 4.99 -1.96 5.98 -4 7 C-4.66 6.34 -5.32 5.68 -6 5 C-4.02 3.35 -2.04 1.7 0 0 Z " fill="#7E40FE" transform="translate(1198,1161)"/>
<path d="M0 0 C0 2.62113708 -0.31292445 4.50935112 -1 7 C-1.598125 7.12375 -2.19625 7.2475 -2.8125 7.375 C-5.26231348 7.95475985 -5.26231348 7.95475985 -8 10 C-6.34908222 5.70761377 -3.26245434 3.1206085 0 0 Z " fill="#7C33FE" transform="translate(1238,1124)"/>
<path d="M0 0 C1.258125 -0.020625 2.51625 -0.04125 3.8125 -0.0625 C4.52019531 -0.07410156 5.22789062 -0.08570313 5.95703125 -0.09765625 C8 0 8 0 11 1 C11 1.66 11 2.32 11 3 C7.37 2.67 3.74 2.34 0 2 C0 1.34 0 0.68 0 0 Z " fill="#FEDC59" transform="translate(736,968)"/>
<path d="M0 0 C1.15224028 0.92961422 2.29659176 1.8690125 3.4375 2.8125 C4.07558594 3.33457031 4.71367188 3.85664062 5.37109375 4.39453125 C7 6 7 6 8 9 C6.35 8.67 4.7 8.34 3 8 C2.814375 7.13375 2.814375 7.13375 2.625 6.25 C1.99274387 3.97387794 1.08136532 2.09239794 0 0 Z " fill="#FD48C3" transform="translate(1060,626)"/>
<path d="M0 0 C0.66 0.66 1.32 1.32 2 2 C0.88266271 3.50571657 -0.24410035 5.00444292 -1.375 6.5 C-2.00148438 7.3353125 -2.62796875 8.170625 -3.2734375 9.03125 C-3.84320312 9.6809375 -4.41296875 10.330625 -5 11 C-5.66 11 -6.32 11 -7 11 C-5.22054913 6.95579349 -2.60470327 3.53921513 0 0 Z " fill="#FF934D" transform="translate(755,541)"/>
<path d="M0 0 C0.66 0.33 1.32 0.66 2 1 C-1.3 3.31 -4.6 5.62 -8 8 C-8.66 7.67 -9.32 7.34 -10 7 C-9.67 6.01 -9.34 5.02 -9 4 C-7.67851173 3.62243192 -6.34164079 3.2981424 -5 3 C-3.700625 2.195625 -3.700625 2.195625 -2.375 1.375 C-1.59125 0.92125 -0.8075 0.4675 0 0 Z " fill="#FE8631" transform="translate(831,474)"/>
<path d="M0 0 C3.3 0 6.6 0 10 0 C7.41073669 2.58926331 5.97294721 2.37398043 2.375 2.625 C1.37210938 2.69976563 0.36921875 2.77453125 -0.6640625 2.8515625 C-1.82035156 2.92503906 -1.82035156 2.92503906 -3 3 C-2.01 2.67 -1.02 2.34 0 2 C0 1.34 0 0.68 0 0 Z " fill="#AC39FD" transform="translate(1047,1218)"/>
<path d="M0 0 C0.66 0.33 1.32 0.66 2 1 C1.67 1.99 1.34 2.98 1 4 C-2.26202163 5.30480865 -5.57956185 6.21066812 -9 7 C-6.25604436 4.05278838 -3.61662784 1.80831392 0 0 Z " fill="#7B38FE" transform="translate(1183,1172)"/>
<path d="M0 0 C2.39763185 2.39763185 2.34280586 3.33273498 2.625 6.625 C2.69976563 7.44226563 2.77453125 8.25953125 2.8515625 9.1015625 C2.90054687 9.72804688 2.94953125 10.35453125 3 11 C2.34 11 1.68 11 1 11 C-0.20272819 8.59454362 -0.10071472 7.05003047 -0.0625 4.375 C-0.05347656 3.55773437 -0.04445313 2.74046875 -0.03515625 1.8984375 C-0.02355469 1.27195312 -0.01195312 0.64546875 0 0 Z " fill="#A648FF" transform="translate(1304,910)"/>
<path d="M0 0 C0.66 0.33 1.32 0.66 2 1 C1.75 2.875 1.75 2.875 1 5 C-1.0625 6.25 -1.0625 6.25 -3 7 C-3 3 -3 3 -1.5 1.25 C-1.005 0.8375 -0.51 0.425 0 0 Z " fill="#8D3DFE" transform="translate(1208,1153)"/>
<path d="M0 0 C0.66 0 1.32 0 2 0 C1.40075776 4.19469571 0.42500059 8.00999834 -1 12 C-1.33 12 -1.66 12 -2 12 C-2.17835515 7.45194365 -1.99785435 4.1205746 0 0 Z " fill="#9645FF" transform="translate(1293,1028)"/>
<path d="M0 0 C0.99 0.495 0.99 0.495 2 1 C2.6328125 3.50390625 2.6328125 3.50390625 3.125 6.5625 C3.29257813 7.57441406 3.46015625 8.58632813 3.6328125 9.62890625 C3.75398438 10.41136719 3.87515625 11.19382812 4 12 C3.34 12 2.68 12 2 12 C0.40861915 7.82262526 -0.21278058 4.46839215 0 0 Z " fill="#8739FE" transform="translate(1272,811)"/>
<path d="M0 0 C0.33 0.99 0.66 1.98 1 3 C-1.98241547 3.77321882 -4.97580475 4.41196203 -8 5 C-8 4.01 -8 3.02 -8 2 C-5.36 1.34 -2.72 0.68 0 0 Z " fill="#FE9D3F" transform="translate(912,436)"/>
<path d="M0 0 C1.32 0 2.64 0 4 0 C4.66 1.65 5.32 3.3 6 5 C5.34 5 4.68 5 4 5 C3.67 5.66 3.34 6.32 3 7 C0 2.25 0 2.25 0 0 Z " fill="#FEDF3D" transform="translate(946,1107)"/>
<path d="M0 0 C0.33 0 0.66 0 1 0 C1.28571429 7.42857143 1.28571429 7.42857143 -1 11 C-2.26264601 6.70700357 -1.62950412 4.12168689 0 0 Z " fill="#A348FF" transform="translate(1306,969)"/>
<path d="M0 0 C0.66 0.99 1.32 1.98 2 3 C-0.9465385 4.80066242 -3.88801935 6.50163895 -7 8 C-5.61918777 3.8575633 -3.40174442 2.67796901 0 0 Z " fill="#FE49CB" transform="translate(1073,457)"/>
<path d="M0 0 C0.99 0.66 1.98 1.32 3 2 C0.03 4.475 0.03 4.475 -3 7 C-3.33 6.34 -3.66 5.68 -4 5 C-2.68 3.35 -1.36 1.7 0 0 Z " fill="#8431FE" transform="translate(1213,1149)"/>
<path d="M0 0 C5.75 -0.125 5.75 -0.125 8 1 C8 1.66 8 2.32 8 3 C4.37673261 4.2077558 3.35853631 3.54311128 0 2 C0 1.34 0 0.68 0 0 Z " fill="#FE9931" transform="translate(878,1001)"/>
<path d="M0 0 C2.64 1.98 5.28 3.96 8 6 C7.67 6.99 7.34 7.98 7 9 C7 8.34 7 7.68 7 7 C6.21625 6.773125 5.4325 6.54625 4.625 6.3125 C2 5 2 5 0.6875 2.375 C0.460625 1.59125 0.23375 0.8075 0 0 Z " fill="#FFA539" transform="translate(806,958)"/>
<path d="M0 0 C3.93673644 1.31224548 6.22719294 2.91910327 9 6 C4.9666466 6 3.16482462 4.39120082 0 2 C0 1.34 0 0.68 0 0 Z " fill="#994EFE" transform="translate(1190,721)"/>
<path d="M0 0 C0.33 0.99 0.66 1.98 1 3 C-0.21484375 4.82421875 -0.21484375 4.82421875 -1.9375 6.6875 C-2.50339844 7.31011719 -3.06929687 7.93273437 -3.65234375 8.57421875 C-4.09707031 9.04472656 -4.54179688 9.51523437 -5 10 C-5.33 9.01 -5.66 8.02 -6 7 C-4.78515625 5.17578125 -4.78515625 5.17578125 -3.0625 3.3125 C-2.49660156 2.68988281 -1.93070313 2.06726563 -1.34765625 1.42578125 C-0.90292969 0.95527344 -0.45820312 0.48476563 0 0 Z " fill="#FF60BA" transform="translate(1252,625)"/>
<path d="M0 0 C1.32 0.33 2.64 0.66 4 1 C4.66 3.97 5.32 6.94 6 10 C3.36335259 7.36335259 1.744776 5.24029829 0 2 C0 1.34 0 0.68 0 0 Z " fill="#FE50BA" transform="translate(1256,482)"/>
<path d="M0 0 C0 0.66 0 1.32 0 2 C-4.05431692 3.15837626 -6.21812119 2.83691257 -10 1 C-6.42181037 -1.33958553 -4.07775191 -0.9267618 0 0 Z " fill="#8339FE" transform="translate(1080,1215)"/>
<path d="M0 0 C1.98 0.99 1.98 0.99 4 2 C4 2.66 4 3.32 4 4 C3.34 4 2.68 4 2 4 C2.33 5.98 2.66 7.96 3 10 C0.70366176 6.55549263 0.45983515 4.06187717 0 0 Z " fill="#6B33FE" transform="translate(1295,872)"/>
<path d="M0 0 C1.25541557 3.76624671 0.37061958 5.37188934 -1 9 C-1.66 9 -2.32 9 -3 9 C-3.33 7.35 -3.66 5.7 -4 4 C-3.01 4 -2.02 4 -1 4 C-0.67 2.68 -0.34 1.36 0 0 Z " fill="#FE8138" transform="translate(722,598)"/>
<path d="M0 0 C0.66 0 1.32 0 2 0 C5 5.75 5 5.75 5 8 C2 7 2 7 0.8125 5.125 C0 3 0 3 0 0 Z " fill="#FF59D1" transform="translate(1265,495)"/>
<path d="M0 0 C0.53625 0.226875 1.0725 0.45375 1.625 0.6875 C-3.79038462 3.76442308 -3.79038462 3.76442308 -6.75 3.375 C-7.554375 3.0346875 -7.554375 3.0346875 -8.375 2.6875 C-2.95961538 -0.38942308 -2.95961538 -0.38942308 0 0 Z " fill="#FF66BD" transform="translate(1115.375,433.3125)"/>
<path d="M0 0 C0.66 0 1.32 0 2 0 C1.43628586 3.26954202 0.50037734 4.82575883 -2 7 C-2.99 6.67 -3.98 6.34 -5 6 C-4.01 5.67 -3.02 5.34 -2 5 C-0.78130071 2.49552484 -0.78130071 2.49552484 0 0 Z " fill="#FFAA3C" transform="translate(766,527)"/>
<path d="M0 0 C3.465 1.485 3.465 1.485 7 3 C7 3.66 7 4.32 7 5 C5.35 5 3.7 5 2 5 C2 4.34 2 3.68 2 3 C1.34 3 0.68 3 0 3 C0 2.01 0 1.02 0 0 Z " fill="#FEE340" transform="translate(816,990)"/>
<path d="M0 0 C4.20626034 1.50223584 5.73900021 4.28550034 8 8 C4.20645982 6.50968064 2.3521464 4.27620391 0 1 C0 0.67 0 0.34 0 0 Z " fill="#FF68C5" transform="translate(1056,624)"/>
<path d="M0 0 C0.66 0 1.32 0 2 0 C1.6875 2.875 1.6875 2.875 1 6 C0.01 6.66 -0.98 7.32 -2 8 C-1.125 2.25 -1.125 2.25 0 0 Z " fill="#FF67BF" transform="translate(1272,586)"/>
<path d="M0 0 C0.66 0 1.32 0 2 0 C0.70700306 2.88437779 -0.65941363 4.87219421 -3 7 C-3.66 6.67 -4.32 6.34 -5 6 C-4.34 5.01 -3.68 4.02 -3 3 C-2.34 3 -1.68 3 -1 3 C-0.67 2.01 -0.34 1.02 0 0 Z " fill="#FF64BD" transform="translate(1062,468)"/>
<path d="M0 0 C2.125 0.9375 2.125 0.9375 4 2 C2 4 2 4 -0.625 4.125 C-1.40875 4.08375 -2.1925 4.0425 -3 4 C-2.67 3.01 -2.34 2.02 -2 1 C-1.34 0.67 -0.68 0.34 0 0 Z " fill="#FE4BC4" transform="translate(1087,446)"/>
<path d="" fill="#FFFFFF" transform="translate(0,0)"/>
<path d="" fill="#FFFFFF" transform="translate(0,0)"/>
<path d="" fill="#FF80FF" transform="translate(0,0)"/>
<path d="" fill="#FF8080" transform="translate(0,0)"/>
</svg>
